<svg version="1.1" id="Layer_1" xmlns="http://www.w3.org/2000/svg" xmlns:xlink="http://www.w3.org/1999/xlink" x="0px" y="0px"
	 width="100%" viewBox="0 0 5376 5376" enable-background="new 0 0 5376 5376" xml:space="preserve">
<path fill="#FFFFFF" opacity="1.000000" stroke="none" 
	d="
M4.000000,2004.000000 
	C4.000000,1336.000000 4.000000,670.000000 4.000000,4.000000 
	C1796.000000,4.000000 3588.000000,4.000000 5380.000000,4.000000 
	C5380.000000,1796.000000 5380.000000,3588.000000 5380.000000,5380.000000 
	C3588.000000,5380.000000 1796.000000,5380.000000 4.000001,5380.000000 
	C4.000000,4255.333496 4.000000,3130.666748 4.000000,2004.000000 
M4254.931641,4857.349609 
	C4258.888672,4854.915527 4263.044922,4852.752441 4266.773926,4850.008301 
	C4370.859863,4773.413574 4469.395020,4690.217285 4561.163086,4599.240723 
	C4599.869141,4560.868164 4636.849121,4520.716309 4673.811035,4480.632812 
	C4720.271484,4430.250000 4763.916992,4377.436523 4805.086426,4322.641602 
	C4829.447266,4290.216797 4852.947266,4257.145020 4879.093750,4222.917480 
	C4886.468750,4211.897461 4893.942383,4200.941895 4901.197754,4189.843262 
	C4918.302734,4163.678223 4935.397949,4137.505859 4952.305664,4111.212402 
	C4959.856445,4099.469727 4967.235840,4087.596191 4974.180176,4075.487793 
	C4987.416016,4052.406738 5000.386719,4029.170898 5013.280762,4005.896484 
	C5033.913086,3968.653809 5054.760254,3931.522217 5074.776855,3893.949951 
	C5084.149414,3876.357910 5091.978516,3857.928467 5100.188965,3839.735107 
	C5117.149902,3802.150391 5134.617188,3764.770264 5150.539551,3726.746338 
	C5167.738770,3685.675049 5184.452637,3644.337646 5199.462891,3602.430420 
	C5214.925781,3559.261230 5228.300293,3515.335449 5242.181152,3471.611328 
	C5255.845703,3428.567383 5268.099121,3385.131836 5277.855469,3340.992920 
	C5285.872559,3304.722168 5295.026367,3268.702148 5303.020508,3232.426758 
	C5306.868652,3214.967041 5309.111816,3197.157471 5312.252930,3179.536865 
	C5315.740723,3159.975830 5319.874023,3140.519287 5322.903320,3120.890137 
	C5326.440430,3097.972412 5329.215820,3074.933594 5332.073730,3051.916504 
	C5333.871094,3037.443115 5334.520996,3022.797363 5336.920898,3008.435303 
	C5340.643555,2986.162354 5344.767090,2963.996826 5344.189453,2941.277344 
	C5344.122070,2938.625244 5343.924805,2935.770752 5344.749512,2933.336182 
	C5349.140625,2920.375488 5347.768555,2906.977783 5348.159668,2893.714600 
	C5348.355957,2887.056152 5347.104004,2880.027832 5348.822754,2873.806396 
	C5353.000000,2858.684814 5351.567871,2843.399902 5352.126953,2828.152588 
	C5352.856445,2808.271484 5349.896484,2788.198975 5355.569336,2768.547363 
	C5356.643066,2764.829346 5356.011230,2760.592529 5356.008789,2756.594971 
	C5355.985840,2717.268311 5355.967773,2677.941650 5355.837891,2638.615479 
	C5355.820312,2633.308594 5355.322754,2627.991455 5354.816895,2622.701172 
	C5353.998047,2614.139160 5352.422852,2605.611084 5352.180664,2597.040039 
	C5351.709961,2580.387939 5351.976562,2563.715820 5351.861328,2547.052490 
	C5351.829102,2542.393555 5352.504395,2537.431641 5351.163086,2533.137207 
	C5347.498535,2521.403564 5348.147461,2509.441650 5347.828613,2497.490967 
	C5347.704590,2492.834961 5347.561035,2488.162109 5347.065918,2483.535645 
	C5344.812500,2462.465088 5342.308594,2441.421143 5340.133789,2420.342773 
	C5338.363770,2403.188965 5337.302246,2385.955811 5335.245117,2368.839600 
	C5333.350098,2353.072266 5330.424805,2337.431152 5328.173340,2321.703369 
	C5324.980469,2299.400635 5322.748535,2276.930908 5318.708496,2254.787354 
	C5314.190918,2230.030762 5310.478027,2205.137695 5304.512207,2180.596924 
	C5296.057617,2145.819580 5289.645020,2110.551025 5281.683105,2075.646973 
	C5271.192871,2029.660767 5257.285645,1984.576782 5244.883789,1939.094727 
	C5230.515137,1886.398438 5212.487305,1834.989990 5193.485352,1783.929077 
	C5177.261230,1740.332153 5158.893555,1697.532715 5141.475586,1654.380005 
	C5126.279785,1616.734009 5110.064941,1579.536133 5091.594238,1543.372925 
	C5077.362305,1515.509155 5062.374023,1488.030151 5048.275879,1460.100220 
	C5031.475098,1426.813965 5014.643066,1393.569702 4995.022461,1361.816040 
	C4970.905273,1322.786133 4947.632812,1283.209961 4922.623535,1244.762573 
	C4897.977539,1206.874512 4871.963867,1169.856689 4845.880371,1132.929810 
	C4829.783691,1110.140747 4813.102051,1087.691895 4795.472168,1066.077271 
	C4775.319824,1041.369995 4757.047852,1015.167175 4734.957031,991.963562 
	C4717.568359,973.698730 4701.689453,953.998718 4685.078125,934.989624 
	C4682.011230,931.480225 4678.564941,928.304993 4675.443359,924.840881 
	C4653.643555,900.652161 4632.532227,875.802185 4609.951660,852.367249 
	C4578.971191,820.213562 4546.887695,789.121460 4515.268066,757.583801 
	C4511.964844,754.289490 4508.731934,750.907227 4505.239258,747.823303 
	C4485.315430,730.233276 4465.415039,712.613831 4445.327148,695.212341 
	C4424.735352,677.373718 4404.269531,659.363647 4383.134277,642.185425 
	C4362.008301,625.014648 4340.276367,608.575012 4318.532715,592.181885 
	C4281.395996,564.183228 4244.744629,535.464966 4206.618652,508.870300 
	C4146.599609,467.003754 4084.572754,428.158875 4020.758789,392.275482 
	C3984.230713,371.735413 3947.510010,351.531067 3910.688721,331.520477 
	C3858.572266,303.197815 3803.787842,280.445862 3750.145996,255.310837 
	C3738.116943,249.674438 3725.789307,244.624908 3713.400391,239.817322 
	C3677.459717,225.870316 3641.651855,211.529999 3605.358398,198.556839 
	C3557.769531,181.546036 3510.178223,164.332352 3461.828613,149.717575 
	C3411.031250,134.362930 3359.873047,119.958199 3307.948730,108.612801 
	C3275.540771,101.531761 3243.270752,93.790375 3210.766846,87.192230 
	C3188.062500,82.583321 3165.029785,79.615219 3142.209717,75.545006 
	C3106.982178,69.261757 3071.774902,62.954521 3036.094727,59.653198 
	C3023.564209,58.493759 3011.088379,56.658283 2998.626221,54.861855 
	C2976.315674,51.645748 2954.033203,48.586037 2931.431152,47.775146 
	C2910.885254,47.038029 2890.181152,46.252197 2869.941406,43.018272 
	C2856.641846,40.893196 2843.538086,40.576832 2830.276123,40.185085 
	C2818.307129,39.831535 2806.334717,39.400917 2794.385254,38.656857 
	C2786.467529,38.163826 2778.591309,36.374359 2770.690918,36.338478 
	C2722.033203,36.117489 2673.368408,35.783974 2624.718018,36.419308 
	C2600.176514,36.739803 2575.443848,37.491692 2551.208008,40.936489 
	C2534.563232,43.302319 2518.110107,43.289906 2501.538818,43.894737 
	C2494.219727,44.161869 2486.531250,43.203220 2479.674805,45.145809 
	C2469.774658,47.950745 2459.927002,47.698269 2449.979492,47.944050 
	C2439.322021,48.207363 2428.510498,47.293907 2418.031738,48.772675 
	C2389.171143,52.845394 2360.562744,58.607155 2331.380127,60.481140 
	C2319.494141,61.244434 2307.602295,62.793163 2295.865967,64.855133 
	C2261.283936,70.930885 2226.803711,77.583565 2192.236816,83.746857 
	C2149.781494,91.316559 2107.717773,100.702354 2065.845947,110.928635 
	C2039.405151,117.386177 2013.042603,124.227837 1986.850952,131.626221 
	C1946.586914,142.999664 1906.340576,154.485901 1866.375122,166.855484 
	C1807.907959,184.951324 1750.774780,206.880951 1693.910767,229.419052 
	C1644.432007,249.029999 1595.652954,270.326141 1547.944458,293.989136 
	C1475.775635,329.784332 1404.344116,366.877716 1334.956055,407.958344 
	C1298.884644,429.314056 1263.094482,451.056793 1227.948975,473.847809 
	C1176.612183,507.138397 1127.055420,543.009094 1078.423950,580.105896 
	C1046.213013,604.676819 1014.453796,629.874390 983.169861,655.614929 
	C960.087036,674.607666 937.945190,694.759033 915.660950,714.703491 
	C887.422058,739.977295 859.220215,765.302185 831.445190,791.082092 
	C795.293945,824.636658 763.041077,861.993591 728.893066,897.504883 
	C727.970337,898.464478 727.126160,899.500061 726.250244,900.504456 
	C710.096008,919.025452 693.961670,937.563904 677.782593,956.063171 
	C665.965637,969.574707 653.556946,982.608276 642.352966,996.607971 
	C619.945740,1024.606567 598.714050,1053.554932 576.020569,1081.312866 
	C548.207581,1115.332886 522.757812,1151.078125 498.372192,1187.495605 
	C464.706360,1237.772217 432.257904,1288.882690 400.142792,1340.171265 
	C383.566772,1366.643555 367.584747,1393.640137 353.523438,1421.504761 
	C319.619232,1488.690918 286.906647,1556.480103 253.935333,1624.134155 
	C245.484619,1641.474365 236.964233,1658.870605 230.022141,1676.838623 
	C210.139053,1728.301392 190.450150,1779.856079 171.859589,1831.795166 
	C159.543503,1866.204590 148.954956,1901.246704 138.157074,1936.179810 
	C131.492477,1957.740601 125.616600,1979.557495 119.858566,2001.383789 
	C104.115829,2061.057861 89.381737,2120.983154 77.576736,2181.575684 
	C72.508461,2207.589844 68.229416,2233.761719 63.861652,2259.906982 
	C60.805096,2278.203369 58.252136,2296.583252 55.375908,2314.910400 
	C54.452438,2320.794678 52.442089,2326.606689 52.264015,2332.492188 
	C51.699390,2351.153564 47.344421,2369.253418 45.051392,2387.636963 
	C43.085430,2403.398682 38.442825,2418.933838 40.012440,2435.105469 
	C40.331360,2438.391357 40.572380,2442.000488 39.576866,2445.044434 
	C35.122463,2458.663574 36.480068,2472.698975 35.714962,2486.612793 
	C35.097778,2497.836914 32.828403,2508.968750 32.174927,2520.192627 
	C31.478441,2532.155518 31.864407,2544.179199 31.662544,2556.174561 
	C31.629456,2558.140869 30.893343,2560.084961 30.669411,2562.060547 
	C29.775574,2569.944336 28.237953,2577.835205 28.219614,2585.726318 
	C28.038368,2663.712891 27.775309,2741.702637 28.307039,2819.686279 
	C28.483364,2845.546143 33.706417,2871.234619 32.419548,2897.239014 
	C32.355526,2898.532715 32.926125,2899.846191 33.083996,2901.164307 
	C34.106625,2909.702881 35.250267,2918.230957 36.040985,2926.791260 
	C36.530247,2932.088135 35.859894,2937.540771 36.755558,2942.743408 
	C40.813374,2966.312988 44.241329,2989.919922 44.116905,3013.917480 
	C44.099693,3017.236084 44.302872,3020.597168 44.827881,3023.870850 
	C49.756813,3054.605957 54.844131,3085.315186 59.755444,3116.052734 
	C65.505302,3152.038818 70.390564,3188.182129 77.036583,3224.000000 
	C82.235313,3252.017822 89.304726,3279.701904 95.967621,3307.432129 
	C113.352928,3379.786621 132.238724,3451.725342 155.985886,3522.312500 
	C171.252701,3567.692383 185.808884,3613.320801 203.911118,3657.691406 
	C212.952545,3679.852783 221.947083,3702.040039 231.445312,3724.006836 
	C248.861923,3764.287354 265.496368,3804.962646 284.551636,3844.462891 
	C307.981415,3893.031006 333.465881,3940.610840 358.236115,3988.528076 
	C373.518219,4018.091064 390.363831,4046.754639 408.361206,4074.760254 
	C423.099396,4097.694824 436.992035,4121.178223 451.965332,4143.954102 
	C474.608490,4178.395996 497.259155,4212.862305 521.039124,4246.518555 
	C542.883118,4277.434570 566.010925,4307.455566 588.979004,4337.561035 
	C605.095093,4358.685059 621.634399,4379.501465 638.466553,4400.060059 
	C652.770569,4417.530762 667.664368,4434.524414 682.570068,4451.489258 
	C684.555908,4453.749512 688.147034,4454.599121 691.376770,4458.919434 
	C693.627441,4462.169922 695.551880,4465.715332 698.180664,4468.623535 
	C719.182739,4491.860352 739.919495,4515.355957 761.485718,4538.061523 
	C831.785583,4612.077637 906.196777,4681.721191 984.540161,4747.197266 
	C1139.632812,4876.816895 1307.270996,4987.459473 1487.488770,5078.841797 
	C1688.079102,5180.554199 1898.109253,5256.083984 2118.207031,5303.093262 
	C2127.933838,5305.170410 2137.833740,5306.437012 2150.084473,5309.984375 
	C2188.004883,5317.133301 2225.821533,5324.907715 2263.878174,5331.238770 
	C2296.033447,5336.587891 2328.429688,5340.561523 2360.788574,5344.586426 
	C2386.547607,5347.790527 2412.493164,5349.548340 2438.210938,5353.021973 
	C2482.494141,5359.003418 2527.042236,5361.643066 2571.589111,5363.339355 
	C2650.209717,5366.333984 2728.892334,5365.934570 2807.531006,5363.448730 
	C2829.447510,5362.756348 2851.298096,5359.982422 2876.391357,5358.364746 
	C2892.979736,5357.240234 2909.633789,5356.710449 2926.144043,5354.880859 
	C2978.405518,5349.089844 3030.682129,5343.346191 3082.824707,5336.592285 
	C3153.509277,5327.437012 3223.348145,5313.481445 3292.778076,5297.453613 
	C3445.610107,5262.174316 3594.093994,5213.575195 3738.320557,5151.956055 
	C3914.186523,5076.819824 4079.791016,4983.405762 4235.508301,4872.434570 
	C4241.423340,4868.219238 4246.569824,4862.922852 4254.931641,4857.349609 
z"/>
<path fill="#F9C8C4" opacity="1.000000" stroke="none" 
	d="
M690.994629,4456.102051 
	C688.147034,4454.599121 684.555908,4453.749512 682.570068,4451.489258 
	C667.664368,4434.524414 652.770569,4417.530762 638.466553,4400.060059 
	C621.634399,4379.501465 605.095093,4358.685059 588.979004,4337.561035 
	C566.010925,4307.455566 542.883118,4277.434570 521.039124,4246.518555 
	C497.259155,4212.862305 474.608490,4178.395996 451.965332,4143.954102 
	C436.992035,4121.178223 423.099396,4097.694824 408.361206,4074.760254 
	C390.363831,4046.754639 373.518219,4018.091064 358.236115,3988.528076 
	C333.465881,3940.610840 307.981415,3893.031006 284.551636,3844.462891 
	C265.496368,3804.962646 248.861923,3764.287354 231.445312,3724.006836 
	C221.947083,3702.040039 212.952545,3679.852783 203.911118,3657.691406 
	C185.808884,3613.320801 171.252701,3567.692383 155.985886,3522.312500 
	C132.238724,3451.725342 113.352928,3379.786621 95.967621,3307.432129 
	C89.304726,3279.701904 82.235313,3252.017822 77.036583,3224.000000 
	C70.390564,3188.182129 65.505302,3152.038818 59.755444,3116.052734 
	C54.844131,3085.315186 49.756813,3054.605957 44.827881,3023.870850 
	C44.302872,3020.597168 44.099693,3017.236084 44.116905,3013.917480 
	C44.241329,2989.919922 40.813374,2966.312988 36.755558,2942.743408 
	C35.859894,2937.540771 36.530247,2932.088135 36.040985,2926.791260 
	C35.250267,2918.230957 34.106625,2909.702881 33.083996,2901.164307 
	C32.926125,2899.846191 32.355526,2898.532715 32.419548,2897.239014 
	C33.706417,2871.234619 28.483364,2845.546143 28.307039,2819.686279 
	C27.775309,2741.702637 28.038368,2663.712891 28.219614,2585.726318 
	C28.237953,2577.835205 29.775574,2569.944336 30.669411,2562.060547 
	C30.893343,2560.084961 31.629456,2558.140869 31.662544,2556.174561 
	C31.864407,2544.179199 31.478441,2532.155518 32.174927,2520.192627 
	C32.828403,2508.968750 35.097778,2497.836914 35.714962,2486.612793 
	C36.480068,2472.698975 35.122463,2458.663574 39.576866,2445.044434 
	C40.572380,2442.000488 40.331360,2438.391357 40.012440,2435.105469 
	C38.442825,2418.933838 43.085430,2403.398682 45.051392,2387.636963 
	C47.344421,2369.253418 51.699390,2351.153564 52.264015,2332.492188 
	C52.442089,2326.606689 54.452438,2320.794678 55.375908,2314.910400 
	C58.252136,2296.583252 60.805096,2278.203369 63.861652,2259.906982 
	C68.229416,2233.761719 72.508461,2207.589844 77.576736,2181.575684 
	C89.381737,2120.983154 104.115829,2061.057861 119.858566,2001.383789 
	C125.616600,1979.557495 131.492477,1957.740601 138.157074,1936.179810 
	C148.954956,1901.246704 159.543503,1866.204590 171.859589,1831.795166 
	C190.450150,1779.856079 210.139053,1728.301392 230.022141,1676.838623 
	C236.964233,1658.870605 245.484619,1641.474365 253.935333,1624.134155 
	C286.906647,1556.480103 319.619232,1488.690918 353.523438,1421.504761 
	C367.584747,1393.640137 383.566772,1366.643555 400.142792,1340.171265 
	C432.257904,1288.882690 464.706360,1237.772217 498.372192,1187.495605 
	C522.757812,1151.078125 548.207581,1115.332886 576.020569,1081.312866 
	C598.714050,1053.554932 619.945740,1024.606567 642.352966,996.607971 
	C653.556946,982.608276 665.965637,969.574707 677.782593,956.063171 
	C693.961670,937.563904 710.096008,919.025452 726.250244,900.504456 
	C727.126160,899.500061 727.970337,898.464478 728.893066,897.504883 
	C763.041077,861.993591 795.293945,824.636658 831.445190,791.082092 
	C859.220215,765.302185 887.422058,739.977295 915.660950,714.703491 
	C937.945190,694.759033 960.087036,674.607666 983.169861,655.614929 
	C1014.453796,629.874390 1046.213013,604.676819 1078.423950,580.105896 
	C1127.055420,543.009094 1176.612183,507.138397 1227.948975,473.847809 
	C1263.094482,451.056793 1298.884644,429.314056 1334.956055,407.958344 
	C1404.344116,366.877716 1475.775635,329.784332 1547.944458,293.989136 
	C1595.652954,270.326141 1644.432007,249.029999 1693.910767,229.419052 
	C1750.774780,206.880951 1807.907959,184.951324 1866.375122,166.855484 
	C1906.340576,154.485901 1946.586914,142.999664 1986.850952,131.626221 
	C2013.042603,124.227837 2039.405151,117.386177 2065.845947,110.928635 
	C2107.717773,100.702354 2149.781494,91.316559 2192.236816,83.746857 
	C2226.803711,77.583565 2261.283936,70.930885 2295.865967,64.855133 
	C2307.602295,62.793163 2319.494141,61.244434 2331.380127,60.481140 
	C2360.562744,58.607155 2389.171143,52.845394 2418.031738,48.772675 
	C2428.510498,47.293907 2439.322021,48.207363 2449.979492,47.944050 
	C2459.927002,47.698269 2469.774658,47.950745 2479.674805,45.145809 
	C2486.531250,43.203220 2494.219727,44.161869 2501.538818,43.894737 
	C2518.110107,43.289906 2534.563232,43.302319 2551.208008,40.936489 
	C2575.443848,37.491692 2600.176514,36.739803 2624.718018,36.419308 
	C2673.368408,35.783974 2722.033203,36.117489 2770.690918,36.338478 
	C2778.591309,36.374359 2786.467529,38.163826 2794.385254,38.656857 
	C2806.334717,39.400917 2818.307129,39.831535 2830.276123,40.185085 
	C2843.538086,40.576832 2856.641846,40.893196 2869.941406,43.018272 
	C2890.181152,46.252197 2910.885254,47.038029 2931.431152,47.775146 
	C2954.033203,48.586037 2976.315674,51.645748 2998.626221,54.861855 
	C3011.088379,56.658283 3023.564209,58.493759 3036.094727,59.653198 
	C3071.774902,62.954521 3106.982178,69.261757 3142.209717,75.545006 
	C3165.029785,79.615219 3188.062500,82.583321 3210.766846,87.192230 
	C3243.270752,93.790375 3275.540771,101.531761 3307.948730,108.612801 
	C3359.873047,119.958199 3411.031250,134.362930 3461.828613,149.717575 
	C3510.178223,164.332352 3557.769531,181.546036 3605.358398,198.556839 
	C3641.651855,211.529999 3677.459717,225.870316 3713.400391,239.817322 
	C3725.789307,244.624908 3738.116943,249.674438 3750.145996,255.310837 
	C3803.787842,280.445862 3858.572266,303.197815 3910.688721,331.520477 
	C3947.510010,351.531067 3984.230713,371.735413 4020.758789,392.275482 
	C4084.572754,428.158875 4146.599609,467.003754 4206.618652,508.870300 
	C4244.744629,535.464966 4281.395996,564.183228 4318.532715,592.181885 
	C4340.276367,608.575012 4362.008301,625.014648 4383.134277,642.185425 
	C4404.269531,659.363647 4424.735352,677.373718 4445.327148,695.212341 
	C4465.415039,712.613831 4485.315430,730.233276 4505.239258,747.823303 
	C4508.731934,750.907227 4511.964844,754.289490 4515.268066,757.583801 
	C4546.887695,789.121460 4578.971191,820.213562 4609.951660,852.367249 
	C4632.532227,875.802185 4653.643555,900.652161 4675.443359,924.840881 
	C4678.564941,928.304993 4682.011230,931.480225 4685.078125,934.989624 
	C4701.689453,953.998718 4717.568359,973.698730 4734.957031,991.963562 
	C4757.047852,1015.167175 4775.319824,1041.369995 4795.472168,1066.077271 
	C4813.102051,1087.691895 4829.783691,1110.140747 4845.880371,1132.929810 
	C4871.963867,1169.856689 4897.977539,1206.874512 4922.623535,1244.762573 
	C4947.632812,1283.209961 4970.905273,1322.786133 4995.022461,1361.816040 
	C5014.643066,1393.569702 5031.475098,1426.813965 5048.275879,1460.100220 
	C5062.374023,1488.030151 5077.362305,1515.509155 5091.594238,1543.372925 
	C5110.064941,1579.536133 5126.279785,1616.734009 5141.475586,1654.380005 
	C5158.893555,1697.532715 5177.261230,1740.332153 5193.485352,1783.929077 
	C5212.487305,1834.989990 5230.515137,1886.398438 5244.883789,1939.094727 
	C5257.285645,1984.576782 5271.192871,2029.660767 5281.683105,2075.646973 
	C5289.645020,2110.551025 5296.057617,2145.819580 5304.512207,2180.596924 
	C5310.478027,2205.137695 5314.190918,2230.030762 5318.708496,2254.787354 
	C5322.748535,2276.930908 5324.980469,2299.400635 5328.173340,2321.703369 
	C5330.424805,2337.431152 5333.350098,2353.072266 5335.245117,2368.839600 
	C5337.302246,2385.955811 5338.363770,2403.188965 5340.133789,2420.342773 
	C5342.308594,2441.421143 5344.812500,2462.465088 5347.065918,2483.535645 
	C5347.561035,2488.162109 5347.704590,2492.834961 5347.828613,2497.490967 
	C5348.147461,2509.441650 5347.498535,2521.403564 5351.163086,2533.137207 
	C5352.504395,2537.431641 5351.829102,2542.393555 5351.861328,2547.052490 
	C5351.976562,2563.715820 5351.709961,2580.387939 5352.180664,2597.040039 
	C5352.422852,2605.611084 5353.998047,2614.139160 5354.816895,2622.701172 
	C5355.322754,2627.991455 5355.820312,2633.308594 5355.837891,2638.615479 
	C5355.967773,2677.941650 5355.985840,2717.268311 5356.008789,2756.594971 
	C5356.011230,2760.592529 5356.643066,2764.829346 5355.569336,2768.547363 
	C5349.896484,2788.198975 5352.856445,2808.271484 5352.126953,2828.152588 
	C5351.567871,2843.399902 5353.000000,2858.684814 5348.822754,2873.806396 
	C5347.104004,2880.027832 5348.355957,2887.056152 5348.159668,2893.714600 
	C5347.768555,2906.977783 5349.140625,2920.375488 5344.749512,2933.336182 
	C5343.924805,2935.770752 5344.122070,2938.625244 5344.189453,2941.277344 
	C5344.767090,2963.996826 5340.643555,2986.162354 5336.920898,3008.435303 
	C5334.520996,3022.797363 5333.871094,3037.443115 5332.073730,3051.916504 
	C5329.215820,3074.933594 5326.440430,3097.972412 5322.903320,3120.890137 
	C5319.874023,3140.519287 5315.740723,3159.975830 5312.252930,3179.536865 
	C5309.111816,3197.157471 5306.868652,3214.967041 5303.020508,3232.426758 
	C5295.026367,3268.702148 5285.872559,3304.722168 5277.855469,3340.992920 
	C5268.099121,3385.131836 5255.845703,3428.567383 5242.181152,3471.611328 
	C5228.300293,3515.335449 5214.925781,3559.261230 5199.462891,3602.430420 
	C5184.452637,3644.337646 5167.738770,3685.675049 5150.539551,3726.746338 
	C5134.617188,3764.770264 5117.149902,3802.150391 5100.188965,3839.735107 
	C5091.978516,3857.928467 5084.149414,3876.357910 5074.776855,3893.949951 
	C5054.760254,3931.522217 5033.913086,3968.653809 5013.280762,4005.896484 
	C5000.386719,4029.170898 4987.416016,4052.406738 4974.180176,4075.487793 
	C4967.235840,4087.596191 4959.856445,4099.469727 4952.305664,4111.212402 
	C4935.397949,4137.505859 4918.302734,4163.678223 4901.197754,4189.843262 
	C4893.942383,4200.941895 4886.468750,4211.897461 4877.376953,4222.302734 
	C4865.846191,4212.090332 4852.913574,4208.044434 4840.786133,4202.927734 
	C4785.037598,4179.409180 4729.124023,4156.277344 4673.166504,4133.256836 
	C4610.450684,4107.456055 4547.592285,4081.999512 4484.853516,4056.253662 
	C4431.338379,4034.293213 4377.912109,4012.115479 4324.430664,3990.072510 
	C4287.546875,3974.870361 4250.589355,3959.846924 4213.748047,3944.541748 
	C4153.568848,3919.540771 4093.492920,3894.291504 4033.309082,3869.302002 
	C3973.130859,3844.314697 3912.920410,3819.404297 3852.620117,3794.713135 
	C3836.677246,3788.185303 3820.352051,3782.591553 3802.942627,3775.864258 
	C3794.502197,3771.717285 3787.466797,3767.922852 3780.119141,3764.884521 
	C3682.430176,3724.489746 3584.726318,3684.131348 3486.954590,3643.937500 
	C3463.620117,3634.344482 3440.023682,3625.389160 3416.136719,3614.610107 
	C3413.197510,3602.760742 3410.258057,3592.522461 3408.220703,3582.107422 
	C3402.738770,3554.087402 3397.651611,3525.989746 3392.390137,3497.926270 
	C3387.128174,3469.859131 3381.691162,3441.823975 3376.607666,3413.724609 
	C3369.278076,3373.209473 3362.444580,3332.603271 3354.947998,3292.119873 
	C3346.363525,3245.761230 3337.036621,3199.540039 3328.481445,3153.176025 
	C3317.154785,3091.791260 3306.480957,3030.285889 3295.126709,2968.906250 
	C3282.927002,2902.956787 3270.375488,2837.071777 3257.719238,2771.208252 
	C3254.881348,2756.440674 3258.912354,2743.927002 3266.602539,2732.613770 
	C3284.314697,2731.217529 3300.803467,2729.389893 3317.338623,2728.739258 
	C3341.596191,2727.784424 3364.581787,2721.072998 3387.294189,2713.688477 
	C3448.453857,2693.803711 3501.505615,2659.967041 3548.540039,2616.628662 
	C3598.526611,2570.570068 3638.571045,2517.126221 3666.853516,2454.986328 
	C3684.394775,2416.445801 3695.175537,2376.145508 3699.419434,2334.244629 
	C3703.363037,2295.310059 3698.468750,2257.208008 3683.594971,2220.706543 
	C3664.337891,2173.447510 3631.384033,2139.780518 3584.464844,2119.346680 
	C3557.140869,2107.446777 3528.145752,2104.349121 3499.155518,2100.767822 
	C3495.247314,2100.285156 3491.185791,2100.917969 3487.204590,2101.175537 
	C3475.965332,2101.902832 3464.731201,2102.703613 3454.006836,2102.055176 
	C3461.960938,2085.749268 3469.025879,2070.660645 3476.913818,2056.015625 
	C3503.499512,2006.656616 3525.247559,1955.227905 3543.626465,1902.318726 
	C3545.564941,1896.738159 3547.866211,1891.283447 3549.813477,1886.249756 
	C3551.422852,1885.967285 3552.142334,1885.607056 3552.696777,1885.778931 
	C3561.560791,1888.525391 3570.429688,1891.259644 3579.246826,1894.151855 
	C3638.673828,1913.645874 3699.426025,1923.769775 3762.118408,1919.687866 
	C3792.842529,1917.687134 3822.889648,1912.301270 3851.505615,1900.347168 
	C3864.510254,1894.914307 3876.622803,1888.052002 3887.246094,1878.746704 
	C3914.094238,1855.229370 3920.422852,1824.267334 3905.113037,1792.092041 
	C3899.322998,1779.923950 3891.327393,1769.342285 3882.130127,1759.600952 
	C3864.109619,1740.514771 3842.935303,1725.572388 3820.143066,1712.841675 
	C3795.654785,1699.163696 3769.818848,1688.589111 3743.225342,1679.730469 
	C3737.142578,1677.704224 3730.085449,1677.252197 3725.202393,1671.209839 
	C3729.769287,1664.140015 3736.909912,1660.307251 3743.006104,1655.464233 
	C3771.310059,1632.978638 3797.070312,1608.005005 3818.840576,1579.060425 
	C3833.740479,1559.250488 3846.052734,1538.028931 3854.061523,1514.442505 
	C3858.828613,1500.402710 3861.310303,1486.070679 3860.146240,1471.228882 
	C3858.422363,1449.244629 3849.025635,1431.396851 3829.877930,1420.085083 
	C3820.849121,1414.751221 3810.731445,1410.696777 3800.599121,1407.913086 
	C3780.399414,1402.363647 3759.640381,1403.296143 3739.052246,1405.775635 
	C3698.939209,1410.606445 3661.250488,1423.616333 3625.280029,1441.495361 
	C3607.424561,1450.370361 3590.467041,1461.039185 3572.951904,1470.619507 
	C3568.575439,1473.013306 3564.526367,1477.748169 3557.946289,1474.356201 
	C3557.261963,1472.224609 3556.436035,1469.728027 3555.657227,1467.216797 
	C3542.221436,1423.900879 3525.668213,1381.869995 3504.902344,1341.486938 
	C3455.514404,1245.444824 3388.522461,1163.320435 3308.084717,1091.801880 
	C3208.425781,1003.193420 3095.533447,936.414734 2971.520996,887.971497 
	C2880.444092,852.394043 2787.164307,826.555664 2688.742676,822.904907 
	C2682.181641,822.661499 2675.661133,821.326233 2668.250977,820.388672 
	C2665.512939,812.572388 2662.684082,805.195190 2660.328125,797.669861 
	C2580.298828,542.033508 2315.871582,379.938354 2041.435547,439.189545 
	C1763.610474,499.172455 1568.791992,776.046204 1637.914673,1079.749146 
	C1656.126953,1159.768433 1692.640503,1230.841064 1744.422852,1294.305176 
	C1750.689575,1301.985718 1755.919434,1310.512207 1760.388184,1319.470703 
	C1723.403442,1374.111938 1700.016724,1433.641479 1681.586182,1494.940063 
	C1663.401245,1555.421631 1648.057373,1616.765991 1631.905151,1677.847778 
	C1612.523193,1751.142334 1593.690063,1824.581787 1574.464233,1897.917969 
	C1549.673340,1992.482666 1524.675415,2086.993164 1499.872314,2181.554688 
	C1487.217529,2229.799805 1474.820557,2278.112793 1462.258179,2326.382324 
	C1444.672607,2393.952881 1427.080322,2461.521973 1409.410278,2529.070312 
	C1402.656128,2554.889648 1397.870605,2581.248535 1396.943604,2607.719971 
	C1395.477783,2649.573975 1394.074463,2691.476807 1399.006104,2733.426025 
	C1401.968628,2758.625977 1406.149536,2783.442383 1412.147705,2807.956299 
	C1426.626099,2867.128418 1448.235352,2923.504395 1479.577026,2975.974121 
	C1500.117798,3010.361816 1523.378906,3042.609131 1549.708740,3072.914795 
	C1573.442505,3100.232666 1600.114746,3124.038818 1627.911865,3146.912598 
	C1653.733032,3168.160645 1681.567749,3186.463623 1710.574341,3202.768555 
	C1747.770630,3223.677490 1786.522583,3241.458252 1827.863403,3252.861572 
	C1870.817261,3264.709473 1913.805420,3276.435303 1956.827759,3288.032227 
	C1965.152710,3290.276123 1973.703979,3291.680420 1982.454346,3295.049316 
	C1982.918091,3299.241943 1983.318237,3301.868408 1983.199585,3304.470947 
	C1982.383545,3322.353027 1991.667603,3332.470947 2008.002930,3337.579590 
	C2013.583496,3339.324707 2018.904541,3341.900879 2024.508789,3345.680908 
	C2026.542114,3357.006836 2028.449341,3366.741699 2030.271973,3376.492676 
	C2034.773315,3400.576416 2039.313232,3424.653320 2043.696045,3448.758789 
	C2049.973145,3483.282959 2056.000244,3517.853027 2062.372314,3552.359619 
	C2066.581299,3575.153320 2071.394287,3597.835693 2075.609619,3620.628418 
	C2084.399902,3668.159668 2093.165527,3715.697021 2101.546387,3763.301514 
	C2105.211914,3784.123291 2107.907227,3805.116211 2109.634766,3826.489746 
	C2086.970459,3836.322754 2065.718262,3845.706299 2044.457275,3855.070068 
	C1950.302490,3896.536133 1856.116455,3937.932129 1762.046143,3979.588867 
	C1754.893555,3982.756348 1748.555542,3987.762939 1740.508301,3992.050781 
	C1705.004272,4006.676758 1670.726685,4020.927734 1636.688599,4035.729248 
	C1607.482300,4048.429688 1578.607422,4061.890381 1549.482544,4074.781006 
	C1507.624878,4093.307373 1465.674072,4111.623535 1423.761353,4130.025391 
	C1393.998413,4143.092773 1364.067993,4155.794922 1334.514771,4169.320801 
	C1305.569336,4182.568359 1277.006714,4196.652344 1246.811035,4210.826172 
	C1216.063599,4223.940918 1186.716187,4236.450684 1157.512451,4249.287109 
	C1096.661987,4276.034668 1035.796387,4302.751465 975.102722,4329.852051 
	C884.063965,4370.501465 793.173096,4411.481934 702.191589,4452.260254 
	C698.605774,4453.867676 694.733459,4454.835938 690.994629,4456.102051 
z"/>
<path fill="#66519E" opacity="1.000000" stroke="none" 
	d="
M1741.838867,3991.914795 
	C1748.555542,3987.762939 1754.893555,3982.756348 1762.046143,3979.588867 
	C1856.116455,3937.932129 1950.302490,3896.536133 2044.457275,3855.070068 
	C2065.718262,3845.706299 2086.970459,3836.322754 2110.352051,3828.092529 
	C2113.377197,3831.738281 2114.635010,3834.171875 2115.125000,3836.751465 
	C2126.170410,3894.866943 2136.890137,3953.046387 2148.284668,4011.093018 
	C2150.999023,4024.921143 2153.143311,4038.651367 2152.366943,4052.677246 
	C2150.981201,4077.709717 2162.023193,4096.271973 2181.717041,4110.448242 
	C2199.759766,4123.436035 2219.862061,4132.180664 2241.094238,4138.375488 
	C2280.185791,4149.781250 2320.379150,4155.263184 2360.707031,4159.605957 
	C2379.862549,4161.668945 2399.180908,4162.746582 2418.447998,4163.123047 
	C2448.417236,4163.709473 2478.412109,4163.708008 2508.383301,4163.201660 
	C2528.315918,4162.864258 2548.236328,4161.378418 2568.143311,4160.104980 
	C2591.370850,4158.618652 2614.611816,4157.172363 2637.783691,4155.025391 
	C2658.949951,4153.063965 2680.047852,4150.316406 2701.146973,4147.685059 
	C2723.572998,4144.887695 2746.059082,4142.388672 2768.348145,4138.722168 
	C2794.572021,4134.408203 2820.574463,4128.768066 2846.740723,4124.081055 
	C2889.287842,4116.459961 2931.609863,4107.774414 2973.520020,4097.217285 
	C3045.825928,4079.003662 3117.432861,4058.427002 3187.133301,4031.719482 
	C3239.392822,4011.694580 3290.947021,3990.040527 3339.512939,3961.968506 
	C3366.076904,3946.613525 3391.563965,3929.554688 3414.372803,3908.932861 
	C3432.364746,3892.666260 3447.608398,3874.203125 3453.085205,3849.719482 
	C3454.350342,3844.063477 3454.880127,3837.802734 3453.877686,3832.151855 
	C3447.377930,3795.507568 3439.994385,3759.019043 3433.619873,3722.354492 
	C3427.478027,3687.028076 3422.203369,3651.551270 3416.547852,3616.140625 
	C3440.023682,3625.389160 3463.620117,3634.344482 3486.954590,3643.937500 
	C3584.726318,3684.131348 3682.430176,3724.489746 3780.119141,3764.884521 
	C3787.466797,3767.922852 3794.502197,3771.717285 3802.568115,3777.231934 
	C3794.951416,3799.560547 3787.002686,3820.071533 3777.845459,3840.027832 
	C3747.443604,3906.283203 3709.117920,3967.974854 3666.571289,4026.932373 
	C3624.474365,4085.266602 3580.633301,4142.339355 3537.835205,4200.170898 
	C3513.272461,4233.360840 3488.539551,4266.464844 3465.217041,4300.521484 
	C3444.437012,4330.864258 3428.784180,4364.001465 3418.207275,4399.402344 
	C3405.433594,4442.154785 3404.679932,4484.870605 3420.319580,4526.900391 
	C3439.405518,4578.190430 3474.994141,4610.810059 3529.973633,4620.884766 
	C3559.378906,4626.272949 3588.243896,4624.350098 3617.090088,4617.619629 
	C3662.013184,4607.137207 3701.645996,4585.604492 3738.530762,4558.760254 
	C3762.760742,4541.126465 3786.202881,4522.405762 3809.897705,4504.042969 
	C3839.388916,4481.187988 3868.505127,4457.780762 3901.653320,4440.223633 
	C3947.333008,4416.029297 3995.527100,4402.545410 4047.693848,4407.893555 
	C4090.875732,4412.319824 4126.890137,4430.113281 4152.121094,4466.593750 
	C4163.202148,4482.615723 4170.644043,4500.375488 4176.076172,4519.068848 
	C4183.376953,4544.193359 4185.229492,4570.122559 4187.736816,4595.934082 
	C4190.697266,4626.398926 4192.514160,4656.981445 4195.851562,4687.400879 
	C4200.295898,4727.911621 4209.452148,4767.468750 4224.156250,4805.528809 
	C4231.328613,4824.093262 4238.775391,4842.721680 4252.074219,4858.130371 
	C4246.569824,4862.922852 4241.423340,4868.219238 4235.508301,4872.434570 
	C4079.791016,4983.405762 3914.186523,5076.819824 3738.320557,5151.956055 
	C3594.093994,5213.575195 3445.610107,5262.174316 3292.778076,5297.453613 
	C3223.348145,5313.481445 3153.509277,5327.437012 3082.824707,5336.592285 
	C3030.682129,5343.346191 2978.405518,5349.089844 2926.144043,5354.880859 
	C2909.633789,5356.710449 2892.979736,5357.240234 2874.665039,5356.791016 
	C2870.492676,5347.636230 2868.314209,5339.956055 2865.552979,5332.492188 
	C2854.602295,5302.890137 2849.016357,5272.300781 2847.662354,5240.811523 
	C2845.935303,5200.643066 2850.438965,5161.171875 2858.698975,5121.877930 
	C2869.642578,5069.818848 2879.911377,5017.610352 2889.776855,4965.334961 
	C2897.891113,4922.335938 2897.404541,4879.237305 2887.671631,4836.470703 
	C2876.728027,4788.383301 2854.059082,4746.945801 2816.649414,4714.211914 
	C2791.089600,4691.846680 2761.219482,4680.351074 2727.218506,4680.215332 
	C2693.695557,4680.082031 2663.058838,4690.076660 2634.553955,4707.349121 
	C2595.288818,4731.141602 2563.468750,4763.272949 2533.871582,4797.737305 
	C2500.431885,4836.677246 2470.028320,4877.977051 2441.158936,4920.393066 
	C2394.698242,4988.655273 2348.188965,5056.886719 2302.055420,5125.370117 
	C2262.090332,5184.696777 2216.861816,5239.544434 2165.319336,5289.179199 
	C2159.115479,5295.152832 2153.526855,5301.764648 2147.653076,5308.081055 
	C2137.833740,5306.437012 2127.933838,5305.170410 2118.207031,5303.093262 
	C1898.109253,5256.083984 1688.079102,5180.554199 1487.488770,5078.841797 
	C1307.270996,4987.459473 1139.632812,4876.816895 984.540161,4747.197266 
	C906.196777,4681.721191 831.785583,4612.077637 761.485718,4538.061523 
	C739.919495,4515.355957 719.182739,4491.860352 698.180664,4468.623535 
	C695.551880,4465.715332 693.627441,4462.169922 691.185730,4457.510742 
	C694.733459,4454.835938 698.605774,4453.867676 702.191589,4452.260254 
	C793.173096,4411.481934 884.063965,4370.501465 975.102722,4329.852051 
	C1035.796387,4302.751465 1096.661987,4276.034668 1157.512451,4249.287109 
	C1186.716187,4236.450684 1216.063599,4223.940918 1247.307617,4212.232910 
	C1255.415161,4224.989746 1261.830322,4236.665527 1267.663818,4248.624512 
	C1310.092407,4335.605957 1369.684937,4408.991699 1444.093994,4470.432129 
	C1542.856445,4551.981445 1655.271606,4603.173340 1782.465454,4621.024902 
	C1830.559937,4627.774414 1878.191772,4625.540039 1924.762695,4611.675781 
	C1998.313599,4589.778320 2045.844238,4541.888672 2064.914795,4467.040527 
	C2077.198242,4418.831055 2074.919434,4370.690430 2061.620117,4323.061523 
	C2042.547729,4254.758301 2004.977173,4197.252441 1956.562866,4146.363770 
	C1916.380615,4104.127930 1870.305298,4069.151611 1820.861694,4038.586914 
	C1794.845337,4022.504395 1768.200195,4007.439209 1741.838867,3991.914795 
z"/>
<path fill="#FDBE3B" opacity="1.000000" stroke="none" 
	d="
M4253.502930,4857.740234 
	C4238.775391,4842.721680 4231.328613,4824.093262 4224.156250,4805.528809 
	C4209.452148,4767.468750 4200.295898,4727.911621 4195.851562,4687.400879 
	C4192.514160,4656.981445 4190.697266,4626.398926 4187.736816,4595.934082 
	C4185.229492,4570.122559 4183.376953,4544.193359 4176.076172,4519.068848 
	C4170.644043,4500.375488 4163.202148,4482.615723 4152.121094,4466.593750 
	C4126.890137,4430.113281 4090.875732,4412.319824 4047.693848,4407.893555 
	C3995.527100,4402.545410 3947.333008,4416.029297 3901.653320,4440.223633 
	C3868.505127,4457.780762 3839.388916,4481.187988 3809.897705,4504.042969 
	C3786.202881,4522.405762 3762.760742,4541.126465 3738.530762,4558.760254 
	C3701.645996,4585.604492 3662.013184,4607.137207 3617.090088,4617.619629 
	C3588.243896,4624.350098 3559.378906,4626.272949 3529.973633,4620.884766 
	C3474.994141,4610.810059 3439.405518,4578.190430 3420.319580,4526.900391 
	C3404.679932,4484.870605 3405.433594,4442.154785 3418.207275,4399.402344 
	C3428.784180,4364.001465 3444.437012,4330.864258 3465.217041,4300.521484 
	C3488.539551,4266.464844 3513.272461,4233.360840 3537.835205,4200.170898 
	C3580.633301,4142.339355 3624.474365,4085.266602 3666.571289,4026.932373 
	C3709.117920,3967.974854 3747.443604,3906.283203 3777.845459,3840.027832 
	C3787.002686,3820.071533 3794.951416,3799.560547 3803.827881,3777.936035 
	C3820.352051,3782.591553 3836.677246,3788.185303 3852.620117,3794.713135 
	C3912.920410,3819.404297 3973.130859,3844.314697 4033.309082,3869.302002 
	C4093.492920,3894.291504 4153.568848,3919.540771 4213.748047,3944.541748 
	C4250.589355,3959.846924 4287.546875,3974.870361 4324.430664,3990.072510 
	C4377.912109,4012.115479 4431.338379,4034.293213 4484.853516,4056.253662 
	C4547.592285,4081.999512 4610.450684,4107.456055 4673.166504,4133.256836 
	C4729.124023,4156.277344 4785.037598,4179.409180 4840.786133,4202.927734 
	C4852.913574,4208.044434 4865.846191,4212.090332 4876.247070,4223.026367 
	C4852.947266,4257.145020 4829.447266,4290.216797 4805.086426,4322.641602 
	C4763.916992,4377.436523 4720.271484,4430.250000 4673.811035,4480.632812 
	C4636.849121,4520.716309 4599.869141,4560.868164 4561.163086,4599.240723 
	C4469.395020,4690.217285 4370.859863,4773.413574 4266.773926,4850.008301 
	C4263.044922,4852.752441 4258.888672,4854.915527 4253.502930,4857.740234 
z"/>
<path fill="#FCBE3D" opacity="1.000000" stroke="none" 
	d="
M2148.868652,5309.032715 
	C2153.526855,5301.764648 2159.115479,5295.152832 2165.319336,5289.179199 
	C2216.861816,5239.544434 2262.090332,5184.696777 2302.055420,5125.370117 
	C2348.188965,5056.886719 2394.698242,4988.655273 2441.158936,4920.393066 
	C2470.028320,4877.977051 2500.431885,4836.677246 2533.871582,4797.737305 
	C2563.468750,4763.272949 2595.288818,4731.141602 2634.553955,4707.349121 
	C2663.058838,4690.076660 2693.695557,4680.082031 2727.218506,4680.215332 
	C2761.219482,4680.351074 2791.089600,4691.846680 2816.649414,4714.211914 
	C2854.059082,4746.945801 2876.728027,4788.383301 2887.671631,4836.470703 
	C2897.404541,4879.237305 2897.891113,4922.335938 2889.776855,4965.334961 
	C2879.911377,5017.610352 2869.642578,5069.818848 2858.698975,5121.877930 
	C2850.438965,5161.171875 2845.935303,5200.643066 2847.662354,5240.811523 
	C2849.016357,5272.300781 2854.602295,5302.890137 2865.552979,5332.492188 
	C2868.314209,5339.956055 2870.492676,5347.636230 2873.058838,5356.690430 
	C2851.298096,5359.982422 2829.447510,5362.756348 2807.531006,5363.448730 
	C2728.892334,5365.934570 2650.209717,5366.333984 2571.589111,5363.339355 
	C2527.042236,5361.643066 2482.494141,5359.003418 2438.210938,5353.021973 
	C2412.493164,5349.548340 2386.547607,5347.790527 2360.788574,5344.586426 
	C2328.429688,5340.561523 2296.033447,5336.587891 2263.878174,5331.238770 
	C2225.821533,5324.907715 2188.004883,5317.133301 2148.868652,5309.032715 
z"/>
<path fill="#DC814A" opacity="1.000000" stroke="none" 
	d="
M3416.136719,3614.609863 
	C3422.203369,3651.551270 3427.478027,3687.028076 3433.619873,3722.354492 
	C3439.994385,3759.019043 3447.377930,3795.507568 3453.877686,3832.151855 
	C3454.880127,3837.802734 3454.350342,3844.063477 3453.085205,3849.719482 
	C3447.608398,3874.203125 3432.364746,3892.666260 3414.372803,3908.932861 
	C3391.563965,3929.554688 3366.076904,3946.613525 3339.512939,3961.968506 
	C3290.947021,3990.040527 3239.392822,4011.694580 3187.133301,4031.719482 
	C3117.432861,4058.427002 3045.825928,4079.003662 2973.520020,4097.217285 
	C2931.609863,4107.774414 2889.287842,4116.459961 2846.740723,4124.081055 
	C2820.574463,4128.768066 2794.572021,4134.408203 2768.348145,4138.722168 
	C2746.059082,4142.388672 2723.572998,4144.887695 2701.146973,4147.685059 
	C2680.047852,4150.316406 2658.949951,4153.063965 2637.783691,4155.025391 
	C2614.611816,4157.172363 2591.370850,4158.618652 2568.143311,4160.104980 
	C2548.236328,4161.378418 2528.315918,4162.864258 2508.383301,4163.201660 
	C2478.412109,4163.708008 2448.417236,4163.709473 2418.447998,4163.123047 
	C2399.180908,4162.746582 2379.862549,4161.668945 2360.707031,4159.605957 
	C2320.379150,4155.263184 2280.185791,4149.781250 2241.094238,4138.375488 
	C2219.862061,4132.180664 2199.759766,4123.436035 2181.717041,4110.448242 
	C2162.023193,4096.271973 2150.981201,4077.709717 2152.366943,4052.677246 
	C2153.143311,4038.651367 2150.999023,4024.921143 2148.284668,4011.093018 
	C2136.890137,3953.046387 2126.170410,3894.866943 2115.125000,3836.751465 
	C2114.635010,3834.171875 2113.377197,3831.738281 2111.760254,3827.633789 
	C2107.907227,3805.116211 2105.211914,3784.123291 2101.546387,3763.301514 
	C2093.165527,3715.697021 2084.399902,3668.159668 2075.609619,3620.628418 
	C2071.394287,3597.835693 2066.581299,3575.153320 2062.372314,3552.359619 
	C2056.000244,3517.853027 2049.973145,3483.282959 2043.696045,3448.758789 
	C2039.313232,3424.653320 2034.773315,3400.576416 2030.271973,3376.492676 
	C2028.449341,3366.741699 2026.542114,3357.006836 2026.129272,3345.658936 
	C2045.108276,3347.395020 2062.605713,3350.879883 2080.161133,3354.040771 
	C2099.677979,3357.554443 2119.233154,3360.864746 2138.800781,3364.085938 
	C2150.541504,3366.019043 2162.348389,3367.547363 2174.107422,3369.372314 
	C2193.053223,3372.312500 2211.827393,3376.644043 2231.187256,3376.121338 
	C2234.509766,3376.031738 2238.104004,3375.468506 2241.123291,3376.473877 
	C2256.704590,3381.660645 2272.742920,3379.692871 2288.631348,3380.141357 
	C2292.614014,3380.253906 2296.969727,3379.675293 2300.494629,3381.074951 
	C2310.184082,3384.922119 2320.154053,3383.983154 2330.083496,3384.078369 
	C2343.399658,3384.205811 2356.719238,3384.003418 2370.034424,3384.172852 
	C2375.325928,3384.239990 2380.622559,3384.796875 2385.893066,3385.356445 
	C2393.115479,3386.123047 2400.304932,3387.762451 2407.526367,3387.870850 
	C2429.494629,3388.201172 2451.471191,3388.012207 2473.444580,3387.938721 
	C2478.094971,3387.923096 2483.108643,3388.585938 2487.323975,3387.121094 
	C2498.387451,3383.275879 2509.668945,3384.302246 2520.927979,3384.122314 
	C2529.582275,3383.984131 2538.395020,3384.978516 2546.862793,3383.680664 
	C2567.791016,3380.472900 2588.565186,3376.309814 2609.812744,3375.520264 
	C2612.384277,3375.424805 2614.877930,3373.972412 2617.465820,3373.421631 
	C2626.530273,3371.493164 2635.734863,3370.114990 2644.674805,3367.733887 
	C2660.045898,3363.639160 2675.359131,3359.263916 2690.509521,3354.421875 
	C2707.636719,3348.948486 2722.356445,3327.620605 2711.550537,3304.024902 
	C2705.386719,3290.565186 2689.880615,3281.811279 2675.603760,3284.877686 
	C2663.951904,3287.380127 2652.444580,3290.591553 2640.938965,3293.729492 
	C2601.856689,3304.388916 2562.527588,3313.285156 2521.611816,3312.163818 
	C2516.350586,3312.019775 2511.048340,3312.897461 2505.783447,3313.470459 
	C2498.565430,3314.256104 2491.370117,3315.908936 2484.156006,3315.960693 
	C2448.201172,3316.218506 2412.243408,3316.131104 2376.287109,3316.013672 
	C2370.329590,3315.994141 2364.362305,3315.350830 2358.421875,3314.767578 
	C2350.539551,3313.992920 2342.697266,3312.477051 2334.806152,3312.207520 
	C2321.503174,3311.753418 2308.172363,3312.187744 2294.859619,3311.924072 
	C2288.918457,3311.806396 2282.986572,3310.964600 2277.062256,3310.338379 
	C2270.494385,3309.644775 2263.953857,3308.656738 2257.375488,3308.107178 
	C2252.078369,3307.664795 2246.601318,3308.395020 2241.449463,3307.370850 
	C2221.944092,3303.492920 2202.416504,3300.092285 2182.454102,3299.864014 
	C2179.821533,3299.833984 2177.174316,3299.320312 2174.570557,3298.833984 
	C2162.876221,3296.648926 2151.258789,3293.957031 2139.496826,3292.251953 
	C2113.292480,3288.453369 2087.218750,3284.209229 2061.616699,3277.213623 
	C2048.859375,3273.727539 2035.862183,3270.965088 2022.834351,3268.662598 
	C2008.479736,3266.125244 1996.532104,3270.509766 1988.428833,3283.277832 
	C1986.290527,3286.646973 1984.241089,3290.072510 1982.150757,3293.472168 
	C1973.703979,3291.680420 1965.152710,3290.276123 1956.827759,3288.032227 
	C1913.805420,3276.435303 1870.817261,3264.709473 1827.863403,3252.861572 
	C1786.522583,3241.458252 1747.770630,3223.677490 1710.574341,3202.768555 
	C1681.567749,3186.463623 1653.733032,3168.160645 1627.911865,3146.912598 
	C1600.114746,3124.038818 1573.442505,3100.232666 1549.708740,3072.914795 
	C1523.378906,3042.609131 1500.117798,3010.361816 1479.577026,2975.974121 
	C1448.235352,2923.504395 1426.626099,2867.128418 1412.147705,2807.956299 
	C1406.149536,2783.442383 1401.968628,2758.625977 1399.006104,2733.426025 
	C1394.074463,2691.476807 1395.477783,2649.573975 1396.943604,2607.719971 
	C1397.870605,2581.248535 1402.656128,2554.889648 1409.410278,2529.070312 
	C1427.080322,2461.521973 1444.672607,2393.952881 1462.258179,2326.382324 
	C1474.820557,2278.112793 1487.217529,2229.799805 1499.872314,2181.554688 
	C1524.675415,2086.993164 1549.673340,1992.482666 1574.464233,1897.917969 
	C1593.690063,1824.581787 1612.523193,1751.142334 1631.905151,1677.847778 
	C1648.057373,1616.765991 1663.401245,1555.421631 1681.586182,1494.940063 
	C1700.016724,1433.641479 1723.403442,1374.111938 1761.748535,1319.664062 
	C1768.714111,1323.086670 1773.383301,1326.859253 1777.395752,1331.234375 
	C1854.329956,1415.119385 1940.495361,1488.274048 2034.142090,1552.803833 
	C2178.763916,1652.459595 2334.979248,1729.131226 2500.044922,1788.329346 
	C2612.428711,1828.634277 2727.305664,1859.966187 2844.226807,1883.904785 
	C2900.327393,1895.390991 2956.635010,1905.712891 3013.503906,1912.722290 
	C3045.223877,1916.632080 3076.940186,1920.571045 3108.642822,1924.617920 
	C3116.352051,1925.602173 3124.158936,1926.497314 3132.493652,1930.379761 
	C3129.901611,1935.992310 3128.039551,1940.882935 3125.483887,1945.379272 
	C3120.218506,1954.643555 3114.448730,1963.620239 3109.121338,1972.850708 
	C3074.331299,2033.132080 3045.982422,2096.072998 3030.050293,2164.165283 
	C3018.699707,2212.677002 3014.861084,2261.490967 3023.927490,2310.811768 
	C3031.968994,2354.556885 3050.988525,2392.798096 3082.239502,2424.659180 
	C3085.246582,2427.725098 3089.395264,2429.670654 3093.740723,2432.631592 
	C3095.891846,2427.498535 3097.696045,2423.936279 3098.911377,2420.183350 
	C3123.479980,2344.325195 3166.319580,2280.182861 3223.575928,2225.218506 
	C3281.440918,2169.669922 3347.918213,2129.585205 3426.703369,2111.330078 
	C3435.754639,2109.232910 3444.570068,2106.118408 3453.494873,2103.475586 
	C3464.731201,2102.703613 3475.965332,2101.902832 3487.204590,2101.175537 
	C3491.185791,2100.917969 3495.247314,2100.285156 3499.155518,2100.767822 
	C3528.145752,2104.349121 3557.140869,2107.446777 3584.464844,2119.346680 
	C3631.384033,2139.780518 3664.337891,2173.447510 3683.594971,2220.706543 
	C3698.468750,2257.208008 3703.363037,2295.310059 3699.419434,2334.244629 
	C3695.175537,2376.145508 3684.394775,2416.445801 3666.853516,2454.986328 
	C3638.571045,2517.126221 3598.526611,2570.570068 3548.540039,2616.628662 
	C3501.505615,2659.967041 3448.453857,2693.803711 3387.294189,2713.688477 
	C3364.581787,2721.072998 3341.596191,2727.784424 3317.338623,2728.739258 
	C3300.803467,2729.389893 3284.314697,2731.217529 3266.602539,2732.613770 
	C3258.912354,2743.927002 3254.881348,2756.440674 3257.719238,2771.208252 
	C3270.375488,2837.071777 3282.927002,2902.956787 3295.126709,2968.906250 
	C3306.480957,3030.285889 3317.154785,3091.791260 3328.481445,3153.176025 
	C3337.036621,3199.540039 3346.363525,3245.761230 3354.947998,3292.119873 
	C3362.444580,3332.603271 3369.278076,3373.209473 3376.607666,3413.724609 
	C3381.691162,3441.823975 3387.128174,3469.859131 3392.390137,3497.926270 
	C3397.651611,3525.989746 3402.738770,3554.087402 3408.220703,3582.107422 
	C3410.258057,3592.522461 3413.197510,3602.760742 3416.136719,3614.609863 
M3323.826172,2543.731934 
	C3320.402832,2539.677734 3316.412354,2535.969238 3313.681396,2531.492676 
	C3308.870361,2523.606445 3302.231689,2515.605469 3301.059570,2507.011230 
	C3299.202637,2493.395020 3299.719727,2479.007080 3301.934082,2465.384766 
	C3305.614014,2442.745850 3317.351074,2423.111328 3329.633057,2404.086426 
	C3333.915771,2397.452393 3339.035400,2391.219727 3344.543945,2385.553223 
	C3350.996826,2378.914551 3353.824463,2379.045410 3362.273193,2383.180664 
	C3376.918945,2390.348633 3388.475830,2401.385498 3399.207275,2413.232422 
	C3418.565674,2434.603027 3435.141846,2457.652344 3440.490479,2486.959473 
	C3441.320312,2491.505859 3442.807617,2495.934326 3444.034912,2500.405273 
	C3447.945557,2514.650391 3459.549072,2523.746094 3474.321777,2524.114014 
	C3477.649658,2524.197021 3480.988770,2524.252441 3484.310547,2524.082275 
	C3499.120361,2523.322998 3511.293213,2510.739746 3512.045410,2495.748291 
	C3513.037109,2475.987793 3507.463867,2457.645752 3499.886719,2439.810547 
	C3489.163574,2414.570068 3474.110107,2391.773926 3458.251465,2369.612549 
	C3452.550293,2361.645508 3444.321533,2355.454102 3437.054932,2348.657227 
	C3434.175781,2345.964600 3430.072510,2344.346680 3427.821289,2341.286865 
	C3425.789795,2338.526367 3425.525879,2334.465820 3424.115479,2329.751709 
	C3433.071533,2327.348145 3440.878662,2325.844971 3448.237549,2323.128418 
	C3457.458252,2319.724365 3465.973633,2321.025635 3475.435059,2322.729736 
	C3487.942139,2324.982422 3497.580566,2331.533936 3507.354248,2338.244141 
	C3513.132080,2342.211182 3518.935547,2343.828857 3525.843018,2344.243652 
	C3554.603027,2345.971191 3565.885498,2335.055420 3564.241699,2305.181641 
	C3563.805908,2297.260986 3561.769287,2290.972412 3555.756592,2285.913818 
	C3540.283203,2272.895020 3522.769775,2262.538574 3503.718506,2257.060303 
	C3475.261963,2248.877441 3445.997314,2250.243164 3417.162354,2257.542725 
	C3372.129883,2268.942383 3334.019775,2292.664062 3301.514893,2325.020508 
	C3274.470703,2351.941406 3252.420410,2382.888184 3240.788086,2419.747314 
	C3230.576416,2452.105713 3223.817871,2484.667969 3231.297852,2519.430420 
	C3237.474365,2548.134766 3250.280762,2571.557129 3272.378174,2590.237793 
	C3275.294922,2592.703369 3279.055420,2595.118164 3282.696289,2595.630859 
	C3315.704102,2600.280518 3331.389160,2581.586426 3327.660156,2554.086426 
	C3327.311768,2551.517090 3325.998047,2549.078857 3323.826172,2543.731934 
M2126.105225,2123.999268 
	C2129.759033,2121.143066 2133.558350,2118.452637 2137.032959,2115.393066 
	C2142.511963,2110.567871 2148.499756,2106.071533 2152.987549,2100.416504 
	C2165.895508,2084.152588 2162.347900,2062.616455 2144.608398,2052.517090 
	C2123.893555,2040.724121 2123.771484,2041.806885 2104.166260,2051.964844 
	C2101.257080,2053.472168 2098.663818,2055.673340 2096.121826,2057.790527 
	C2080.324707,2070.946777 2064.441162,2084.004395 2048.859131,2097.411865 
	C2026.723999,2116.457764 2004.854370,2135.812012 1982.811646,2154.965820 
	C1972.291016,2164.107422 1961.710083,2173.183105 1951.018066,2182.123047 
	C1937.285522,2193.604980 1923.345825,2204.839111 1909.621460,2216.330566 
	C1897.410400,2226.555176 1885.635376,2237.314941 1873.207397,2247.263428 
	C1834.512329,2278.238037 1816.245239,2318.385498 1820.577515,2367.670166 
	C1821.770630,2381.244385 1826.634033,2395.005859 1832.305420,2407.555420 
	C1840.526733,2425.747314 1853.576538,2441.144287 1866.533691,2456.252686 
	C1886.409180,2479.427979 1906.942993,2502.038330 1926.865967,2525.173584 
	C1938.109741,2538.230225 1948.416504,2552.094238 1959.671509,2565.140625 
	C1966.617554,2573.192627 1974.216309,2580.769287 1982.155518,2587.848877 
	C1988.164917,2593.207520 1995.363037,2597.140137 2004.025024,2595.290039 
	C2016.990356,2592.521484 2033.724365,2575.109375 2035.612915,2561.992676 
	C2036.657349,2554.738525 2036.668335,2547.510742 2031.415161,2541.152100 
	C2020.862427,2528.378906 2011.022095,2515.005615 2000.232666,2502.442383 
	C1986.820679,2486.825684 1972.554443,2471.945068 1959.009399,2456.438721 
	C1944.612183,2439.957275 1930.479126,2423.238525 1916.532715,2406.373535 
	C1910.626343,2399.231201 1905.135620,2391.682861 1900.072388,2383.917236 
	C1885.736816,2361.931885 1890.080566,2329.990967 1909.135864,2312.630127 
	C1929.770142,2293.830566 1949.540649,2274.041016 1970.745972,2255.921387 
	C1995.449585,2234.812500 2021.517822,2215.323486 2045.277710,2193.052979 
	C2055.435303,2183.531982 2066.371582,2174.839111 2076.997803,2165.821533 
	C2092.670654,2152.521729 2108.382324,2139.268066 2126.105225,2123.999268 
M2463.680664,2681.699951 
	C2457.064941,2687.224609 2450.518799,2692.835205 2443.815918,2698.251953 
	C2435.045166,2705.340576 2426.659180,2713.076416 2417.189453,2719.087891 
	C2403.197754,2727.970215 2388.722900,2736.144043 2372.852051,2741.568848 
	C2341.971680,2752.123291 2311.155029,2761.755127 2277.710693,2760.403320 
	C2256.428223,2759.543213 2235.188477,2759.799561 2214.630371,2753.413086 
	C2207.608154,2751.231445 2201.305176,2752.677734 2195.575195,2756.353760 
	C2191.149170,2759.192871 2186.865479,2762.637939 2183.458008,2766.617676 
	C2164.578125,2788.668701 2171.775391,2807.235840 2191.880371,2819.896973 
	C2194.113525,2821.303467 2196.635010,2822.365723 2199.154053,2823.184082 
	C2208.010742,2826.061523 2216.815186,2828.406738 2226.434326,2828.238037 
	C2253.755859,2827.759277 2281.092529,2827.898926 2308.419922,2828.151611 
	C2321.137695,2828.269287 2333.466553,2826.712646 2345.904785,2823.920410 
	C2414.096191,2808.612061 2471.702637,2774.622803 2520.391113,2725.185791 
	C2535.761963,2709.578369 2548.085449,2691.371094 2559.950928,2672.871338 
	C2566.004639,2663.433350 2568.312988,2654.019043 2568.413086,2642.940430 
	C2568.516602,2631.499756 2563.594727,2623.926758 2554.975586,2617.899414 
	C2551.725830,2615.626953 2547.741455,2614.407227 2544.480957,2612.146973 
	C2535.826660,2606.147217 2527.505859,2608.350098 2520.543213,2614.200928 
	C2512.424316,2621.023193 2503.964355,2628.234375 2498.282227,2636.984375 
	C2488.462158,2652.107910 2476.551025,2665.476318 2463.680664,2681.699951 
M1888.152710,2002.111694 
	C1907.229370,1979.681030 1914.308716,1953.526978 1912.553467,1924.500854 
	C1912.021851,1915.710449 1909.877686,1907.499390 1905.719727,1899.813477 
	C1895.208862,1880.384277 1876.150513,1874.501831 1856.834351,1884.764893 
	C1847.877808,1889.523682 1840.890259,1896.575562 1834.867920,1904.609985 
	C1820.865723,1923.289917 1814.529419,1944.775024 1813.447632,1967.681152 
	C1812.849487,1980.345825 1815.879761,1992.726440 1822.634155,2003.819946 
	C1833.390015,2021.485840 1850.214111,2026.643555 1868.724365,2017.135498 
	C1875.078369,2013.871704 1880.398926,2008.596436 1888.152710,2002.111694 
M2481.778076,2090.022949 
	C2482.855225,2101.248291 2483.052734,2112.636719 2487.890137,2123.167480 
	C2499.889893,2149.288818 2524.952148,2150.325439 2542.712891,2138.509033 
	C2546.546143,2135.958740 2549.997314,2132.686523 2553.174561,2129.321777 
	C2576.823242,2104.276611 2584.369141,2074.166016 2579.212158,2040.860596 
	C2577.942383,2032.657715 2573.663330,2024.410522 2568.996338,2017.355591 
	C2560.606445,2004.673340 2546.412842,2000.987183 2531.992920,2006.333984 
	C2521.803711,2010.112427 2513.313965,2016.281616 2506.422363,2024.765503 
	C2491.718262,2042.867676 2483.221191,2063.374756 2481.778076,2090.022949 
z"/>
<path fill="#050305" opacity="1.000000" stroke="none" 
	d="
M3454.006836,2102.055176 
	C3444.570068,2106.118408 3435.754639,2109.232910 3426.703369,2111.330078 
	C3347.918213,2129.585205 3281.440918,2169.669922 3223.575928,2225.218506 
	C3166.319580,2280.182861 3123.479980,2344.325195 3098.911377,2420.183350 
	C3097.696045,2423.936279 3095.891846,2427.498535 3093.740723,2432.631592 
	C3089.395264,2429.670654 3085.246582,2427.725098 3082.239502,2424.659180 
	C3050.988525,2392.798096 3031.968994,2354.556885 3023.927490,2310.811768 
	C3014.861084,2261.490967 3018.699707,2212.677002 3030.050293,2164.165283 
	C3045.982422,2096.072998 3074.331299,2033.132080 3109.121338,1972.850708 
	C3114.448730,1963.620239 3120.218506,1954.643555 3125.483887,1945.379272 
	C3128.039551,1940.882935 3129.901611,1935.992310 3132.493652,1930.379761 
	C3124.158936,1926.497314 3116.352051,1925.602173 3108.642822,1924.617920 
	C3076.940186,1920.571045 3045.223877,1916.632080 3013.503906,1912.722290 
	C2956.635010,1905.712891 2900.327393,1895.390991 2844.226807,1883.904785 
	C2727.305664,1859.966187 2612.428711,1828.634277 2500.044922,1788.329346 
	C2334.979248,1729.131226 2178.763916,1652.459595 2034.142090,1552.803833 
	C1940.495361,1488.274048 1854.329956,1415.119385 1777.395752,1331.234375 
	C1773.383301,1326.859253 1768.714111,1323.086670 1762.990234,1318.840088 
	C1755.919434,1310.512207 1750.689575,1301.985718 1744.422852,1294.305176 
	C1692.640503,1230.841064 1656.126953,1159.768433 1637.914673,1079.749146 
	C1568.791992,776.046204 1763.610474,499.172455 2041.435547,439.189545 
	C2315.871582,379.938354 2580.298828,542.033508 2660.328125,797.669861 
	C2662.684082,805.195190 2665.512939,812.572388 2668.250977,820.388672 
	C2675.661133,821.326233 2682.181641,822.661499 2688.742676,822.904907 
	C2787.164307,826.555664 2880.444092,852.394043 2971.520996,887.971497 
	C3095.533447,936.414734 3208.425781,1003.193420 3308.084717,1091.801880 
	C3388.522461,1163.320435 3455.514404,1245.444824 3504.902344,1341.486938 
	C3525.668213,1381.869995 3542.221436,1423.900879 3555.657227,1467.216797 
	C3556.436035,1469.728027 3557.261963,1472.224609 3557.946289,1474.356201 
	C3564.526367,1477.748169 3568.575439,1473.013306 3572.951904,1470.619507 
	C3590.467041,1461.039185 3607.424561,1450.370361 3625.280029,1441.495361 
	C3661.250488,1423.616333 3698.939209,1410.606445 3739.052246,1405.775635 
	C3759.640381,1403.296143 3780.399414,1402.363647 3800.599121,1407.913086 
	C3810.731445,1410.696777 3820.849121,1414.751221 3829.877930,1420.085083 
	C3849.025635,1431.396851 3858.422363,1449.244629 3860.146240,1471.228882 
	C3861.310303,1486.070679 3858.828613,1500.402710 3854.061523,1514.442505 
	C3846.052734,1538.028931 3833.740479,1559.250488 3818.840576,1579.060425 
	C3797.070312,1608.005005 3771.310059,1632.978638 3743.006104,1655.464233 
	C3736.909912,1660.307251 3729.769287,1664.140015 3725.202393,1671.209839 
	C3730.085449,1677.252197 3737.142578,1677.704224 3743.225342,1679.730469 
	C3769.818848,1688.589111 3795.654785,1699.163696 3820.143066,1712.841675 
	C3842.935303,1725.572388 3864.109619,1740.514771 3882.130127,1759.600952 
	C3891.327393,1769.342285 3899.322998,1779.923950 3905.113037,1792.092041 
	C3920.422852,1824.267334 3914.094238,1855.229370 3887.246094,1878.746704 
	C3876.622803,1888.052002 3864.510254,1894.914307 3851.505615,1900.347168 
	C3822.889648,1912.301270 3792.842529,1917.687134 3762.118408,1919.687866 
	C3699.426025,1923.769775 3638.673828,1913.645874 3579.246826,1894.151855 
	C3570.429688,1891.259644 3561.560791,1888.525391 3552.696777,1885.778931 
	C3552.142334,1885.607056 3551.422852,1885.967285 3549.813477,1886.249756 
	C3547.866211,1891.283447 3545.564941,1896.738159 3543.626465,1902.318726 
	C3525.247559,1955.227905 3503.499512,2006.656616 3476.913818,2056.015625 
	C3469.025879,2070.660645 3461.960938,2085.749268 3454.006836,2102.055176 
M1813.712280,799.578979 
	C1809.307007,809.272949 1804.578003,818.834412 1800.549072,828.682312 
	C1773.982056,893.619568 1767.067993,961.275818 1773.090332,1030.652832 
	C1773.665649,1037.280396 1774.668457,1043.896118 1775.901978,1050.436523 
	C1779.312256,1068.517456 1795.309814,1080.709473 1813.368530,1079.237183 
	C1830.803711,1077.815674 1843.291504,1064.569702 1844.169556,1045.815674 
	C1844.510498,1038.532593 1844.212646,1031.095581 1843.124634,1023.891968 
	C1839.108276,997.300842 1839.805908,970.851807 1843.218872,944.230286 
	C1850.657349,886.207703 1871.115845,833.441406 1905.659180,786.246216 
	C1941.847534,736.803589 1987.480591,699.023071 2044.067505,674.808350 
	C2051.981445,671.421875 2059.916260,667.606750 2066.922852,662.682861 
	C2079.535645,653.819458 2083.814697,639.589478 2079.370117,625.556213 
	C2075.009766,611.788391 2060.464355,600.229126 2046.382690,600.750061 
	C2039.925659,600.988892 2033.230591,603.007751 2027.208496,605.555054 
	C1934.404053,644.810913 1862.006592,706.764282 1813.712280,799.578979 
z"/>
<path fill="#FCBE3B" opacity="1.000000" stroke="none" 
	d="
M1740.508301,3992.050781 
	C1768.200195,4007.439209 1794.845337,4022.504395 1820.861694,4038.586914 
	C1870.305298,4069.151611 1916.380615,4104.127930 1956.562866,4146.363770 
	C2004.977173,4197.252441 2042.547729,4254.758301 2061.620117,4323.061523 
	C2074.919434,4370.690430 2077.198242,4418.831055 2064.914795,4467.040527 
	C2045.844238,4541.888672 1998.313599,4589.778320 1924.762695,4611.675781 
	C1878.191772,4625.540039 1830.559937,4627.774414 1782.465454,4621.024902 
	C1655.271606,4603.173340 1542.856445,4551.981445 1444.093994,4470.432129 
	C1369.684937,4408.991699 1310.092407,4335.605957 1267.663818,4248.624512 
	C1261.830322,4236.665527 1255.415161,4224.989746 1248.772583,4211.776367 
	C1277.006714,4196.652344 1305.569336,4182.568359 1334.514771,4169.320801 
	C1364.067993,4155.794922 1393.998413,4143.092773 1423.761353,4130.025391 
	C1465.674072,4111.623535 1507.624878,4093.307373 1549.482544,4074.781006 
	C1578.607422,4061.890381 1607.482300,4048.429688 1636.688599,4035.729248 
	C1670.726685,4020.927734 1705.004272,4006.676758 1740.508301,3992.050781 
z"/>
<path fill="#BD632E" opacity="1.000000" stroke="none" 
	d="
M1982.454346,3295.049316 
	C1984.241089,3290.072510 1986.290527,3286.646973 1988.428833,3283.277832 
	C1996.532104,3270.509766 2008.479736,3266.125244 2022.834351,3268.662598 
	C2035.862183,3270.965088 2048.859375,3273.727539 2061.616699,3277.213623 
	C2087.218750,3284.209229 2113.292480,3288.453369 2139.496826,3292.251953 
	C2151.258789,3293.957031 2162.876221,3296.648926 2174.570557,3298.833984 
	C2177.174316,3299.320312 2179.821533,3299.833984 2182.454102,3299.864014 
	C2202.416504,3300.092285 2221.944092,3303.492920 2241.449463,3307.370850 
	C2246.601318,3308.395020 2252.078369,3307.664795 2257.375488,3308.107178 
	C2263.953857,3308.656738 2270.494385,3309.644775 2277.062256,3310.338379 
	C2282.986572,3310.964600 2288.918457,3311.806396 2294.859619,3311.924072 
	C2308.172363,3312.187744 2321.503174,3311.753418 2334.806152,3312.207520 
	C2342.697266,3312.477051 2350.539551,3313.992920 2358.421875,3314.767578 
	C2364.362305,3315.350830 2370.329590,3315.994141 2376.287109,3316.013672 
	C2412.243408,3316.131104 2448.201172,3316.218506 2484.156006,3315.960693 
	C2491.370117,3315.908936 2498.565430,3314.256104 2505.783447,3313.470459 
	C2511.048340,3312.897461 2516.350586,3312.019775 2521.611816,3312.163818 
	C2562.527588,3313.285156 2601.856689,3304.388916 2640.938965,3293.729492 
	C2652.444580,3290.591553 2663.951904,3287.380127 2675.603760,3284.877686 
	C2689.880615,3281.811279 2705.386719,3290.565186 2711.550537,3304.024902 
	C2722.356445,3327.620605 2707.636719,3348.948486 2690.509521,3354.421875 
	C2675.359131,3359.263916 2660.045898,3363.639160 2644.674805,3367.733887 
	C2635.734863,3370.114990 2626.530273,3371.493164 2617.465820,3373.421631 
	C2614.877930,3373.972412 2612.384277,3375.424805 2609.812744,3375.520264 
	C2588.565186,3376.309814 2567.791016,3380.472900 2546.862793,3383.680664 
	C2538.395020,3384.978516 2529.582275,3383.984131 2520.927979,3384.122314 
	C2509.668945,3384.302246 2498.387451,3383.275879 2487.323975,3387.121094 
	C2483.108643,3388.585938 2478.094971,3387.923096 2473.444580,3387.938721 
	C2451.471191,3388.012207 2429.494629,3388.201172 2407.526367,3387.870850 
	C2400.304932,3387.762451 2393.115479,3386.123047 2385.893066,3385.356445 
	C2380.622559,3384.796875 2375.325928,3384.239990 2370.034424,3384.172852 
	C2356.719238,3384.003418 2343.399658,3384.205811 2330.083496,3384.078369 
	C2320.154053,3383.983154 2310.184082,3384.922119 2300.494629,3381.074951 
	C2296.969727,3379.675293 2292.614014,3380.253906 2288.631348,3380.141357 
	C2272.742920,3379.692871 2256.704590,3381.660645 2241.123291,3376.473877 
	C2238.104004,3375.468506 2234.509766,3376.031738 2231.187256,3376.121338 
	C2211.827393,3376.644043 2193.053223,3372.312500 2174.107422,3369.372314 
	C2162.348389,3367.547363 2150.541504,3366.019043 2138.800781,3364.085938 
	C2119.233154,3360.864746 2099.677979,3357.554443 2080.161133,3354.040771 
	C2062.605713,3350.879883 2045.108276,3347.395020 2025.964600,3344.075195 
	C2018.904541,3341.900879 2013.583496,3339.324707 2008.002930,3337.579590 
	C1991.667603,3332.470947 1982.383545,3322.353027 1983.199585,3304.470947 
	C1983.318237,3301.868408 1982.918091,3299.241943 1982.454346,3295.049316 
z"/>
<path fill="#BC622D" opacity="1.000000" stroke="none" 
	d="
M3324.479492,2545.155762 
	C3325.998047,2549.078857 3327.311768,2551.517090 3327.660156,2554.086426 
	C3331.389160,2581.586426 3315.704102,2600.280518 3282.696289,2595.630859 
	C3279.055420,2595.118164 3275.294922,2592.703369 3272.378174,2590.237793 
	C3250.280762,2571.557129 3237.474365,2548.134766 3231.297852,2519.430420 
	C3223.817871,2484.667969 3230.576416,2452.105713 3240.788086,2419.747314 
	C3252.420410,2382.888184 3274.470703,2351.941406 3301.514893,2325.020508 
	C3334.019775,2292.664062 3372.129883,2268.942383 3417.162354,2257.542725 
	C3445.997314,2250.243164 3475.261963,2248.877441 3503.718506,2257.060303 
	C3522.769775,2262.538574 3540.283203,2272.895020 3555.756592,2285.913818 
	C3561.769287,2290.972412 3563.805908,2297.260986 3564.241699,2305.181641 
	C3565.885498,2335.055420 3554.603027,2345.971191 3525.843018,2344.243652 
	C3518.935547,2343.828857 3513.132080,2342.211182 3507.354248,2338.244141 
	C3497.580566,2331.533936 3487.942139,2324.982422 3475.435059,2322.729736 
	C3465.973633,2321.025635 3457.458252,2319.724365 3448.237549,2323.128418 
	C3440.878662,2325.844971 3433.071533,2327.348145 3424.115479,2329.751709 
	C3425.525879,2334.465820 3425.789795,2338.526367 3427.821289,2341.286865 
	C3430.072510,2344.346680 3434.175781,2345.964600 3437.054932,2348.657227 
	C3444.321533,2355.454102 3452.550293,2361.645508 3458.251465,2369.612549 
	C3474.110107,2391.773926 3489.163574,2414.570068 3499.886719,2439.810547 
	C3507.463867,2457.645752 3513.037109,2475.987793 3512.045410,2495.748291 
	C3511.293213,2510.739746 3499.120361,2523.322998 3484.310547,2524.082275 
	C3480.988770,2524.252441 3477.649658,2524.197021 3474.321777,2524.114014 
	C3459.549072,2523.746094 3447.945557,2514.650391 3444.034912,2500.405273 
	C3442.807617,2495.934326 3441.320312,2491.505859 3440.490479,2486.959473 
	C3435.141846,2457.652344 3418.565674,2434.603027 3399.207275,2413.232422 
	C3388.475830,2401.385498 3376.918945,2390.348633 3362.273193,2383.180664 
	C3353.824463,2379.045410 3350.996826,2378.914551 3344.543945,2385.553223 
	C3339.035400,2391.219727 3333.915771,2397.452393 3329.633057,2404.086426 
	C3317.351074,2423.111328 3305.614014,2442.745850 3301.934082,2465.384766 
	C3299.719727,2479.007080 3299.202637,2493.395020 3301.059570,2507.011230 
	C3302.231689,2515.605469 3308.870361,2523.606445 3313.681396,2531.492676 
	C3316.412354,2535.969238 3320.402832,2539.677734 3324.479492,2545.155762 
z"/>
<path fill="#BC622D" opacity="1.000000" stroke="none" 
	d="
M2125.091309,2124.997070 
	C2108.382324,2139.268066 2092.670654,2152.521729 2076.997803,2165.821533 
	C2066.371582,2174.839111 2055.435303,2183.531982 2045.277710,2193.052979 
	C2021.517822,2215.323486 1995.449585,2234.812500 1970.745972,2255.921387 
	C1949.540649,2274.041016 1929.770142,2293.830566 1909.135864,2312.630127 
	C1890.080566,2329.990967 1885.736816,2361.931885 1900.072388,2383.917236 
	C1905.135620,2391.682861 1910.626343,2399.231201 1916.532715,2406.373535 
	C1930.479126,2423.238525 1944.612183,2439.957275 1959.009399,2456.438721 
	C1972.554443,2471.945068 1986.820679,2486.825684 2000.232666,2502.442383 
	C2011.022095,2515.005615 2020.862427,2528.378906 2031.415161,2541.152100 
	C2036.668335,2547.510742 2036.657349,2554.738525 2035.612915,2561.992676 
	C2033.724365,2575.109375 2016.990356,2592.521484 2004.025024,2595.290039 
	C1995.363037,2597.140137 1988.164917,2593.207520 1982.155518,2587.848877 
	C1974.216309,2580.769287 1966.617554,2573.192627 1959.671509,2565.140625 
	C1948.416504,2552.094238 1938.109741,2538.230225 1926.865967,2525.173584 
	C1906.942993,2502.038330 1886.409180,2479.427979 1866.533691,2456.252686 
	C1853.576538,2441.144287 1840.526733,2425.747314 1832.305420,2407.555420 
	C1826.634033,2395.005859 1821.770630,2381.244385 1820.577515,2367.670166 
	C1816.245239,2318.385498 1834.512329,2278.238037 1873.207397,2247.263428 
	C1885.635376,2237.314941 1897.410400,2226.555176 1909.621460,2216.330566 
	C1923.345825,2204.839111 1937.285522,2193.604980 1951.018066,2182.123047 
	C1961.710083,2173.183105 1972.291016,2164.107422 1982.811646,2154.965820 
	C2004.854370,2135.812012 2026.723999,2116.457764 2048.859131,2097.411865 
	C2064.441162,2084.004395 2080.324707,2070.946777 2096.121826,2057.790527 
	C2098.663818,2055.673340 2101.257080,2053.472168 2104.166260,2051.964844 
	C2123.771484,2041.806885 2123.893555,2040.724121 2144.608398,2052.517090 
	C2162.347900,2062.616455 2165.895508,2084.152588 2152.987549,2100.416504 
	C2148.499756,2106.071533 2142.511963,2110.567871 2137.032959,2115.393066 
	C2133.558350,2118.452637 2129.759033,2121.143066 2125.091309,2124.997070 
z"/>
<path fill="#BC622D" opacity="1.000000" stroke="none" 
	d="
M2464.763184,2680.763184 
	C2476.551025,2665.476318 2488.462158,2652.107910 2498.282227,2636.984375 
	C2503.964355,2628.234375 2512.424316,2621.023193 2520.543213,2614.200928 
	C2527.505859,2608.350098 2535.826660,2606.147217 2544.480957,2612.146973 
	C2547.741455,2614.407227 2551.725830,2615.626953 2554.975586,2617.899414 
	C2563.594727,2623.926758 2568.516602,2631.499756 2568.413086,2642.940430 
	C2568.312988,2654.019043 2566.004639,2663.433350 2559.950928,2672.871338 
	C2548.085449,2691.371094 2535.761963,2709.578369 2520.391113,2725.185791 
	C2471.702637,2774.622803 2414.096191,2808.612061 2345.904785,2823.920410 
	C2333.466553,2826.712646 2321.137695,2828.269287 2308.419922,2828.151611 
	C2281.092529,2827.898926 2253.755859,2827.759277 2226.434326,2828.238037 
	C2216.815186,2828.406738 2208.010742,2826.061523 2199.154053,2823.184082 
	C2196.635010,2822.365723 2194.113525,2821.303467 2191.880371,2819.896973 
	C2171.775391,2807.235840 2164.578125,2788.668701 2183.458008,2766.617676 
	C2186.865479,2762.637939 2191.149170,2759.192871 2195.575195,2756.353760 
	C2201.305176,2752.677734 2207.608154,2751.231445 2214.630371,2753.413086 
	C2235.188477,2759.799561 2256.428223,2759.543213 2277.710693,2760.403320 
	C2311.155029,2761.755127 2341.971680,2752.123291 2372.852051,2741.568848 
	C2388.722900,2736.144043 2403.197754,2727.970215 2417.189453,2719.087891 
	C2426.659180,2713.076416 2435.045166,2705.340576 2443.815918,2698.251953 
	C2450.518799,2692.835205 2457.064941,2687.224609 2464.763184,2680.763184 
z"/>
<path fill="#0D0908" opacity="1.000000" stroke="none" 
	d="
M1887.172119,2003.175781 
	C1880.398926,2008.596436 1875.078369,2013.871704 1868.724365,2017.135498 
	C1850.214111,2026.643555 1833.390015,2021.485840 1822.634155,2003.819946 
	C1815.879761,1992.726440 1812.849487,1980.345825 1813.447632,1967.681152 
	C1814.529419,1944.775024 1820.865723,1923.289917 1834.867920,1904.609985 
	C1840.890259,1896.575562 1847.877808,1889.523682 1856.834351,1884.764893 
	C1876.150513,1874.501831 1895.208862,1880.384277 1905.719727,1899.813477 
	C1909.877686,1907.499390 1912.021851,1915.710449 1912.553467,1924.500854 
	C1914.308716,1953.526978 1907.229370,1979.681030 1887.172119,2003.175781 
z"/>
<path fill="#0C0808" opacity="1.000000" stroke="none" 
	d="
M2481.816650,2088.379883 
	C2483.221191,2063.374756 2491.718262,2042.867676 2506.422363,2024.765503 
	C2513.313965,2016.281616 2521.803711,2010.112427 2531.992920,2006.333984 
	C2546.412842,2000.987183 2560.606445,2004.673340 2568.996338,2017.355591 
	C2573.663330,2024.410522 2577.942383,2032.657715 2579.212158,2040.860596 
	C2584.369141,2074.166016 2576.823242,2104.276611 2553.174561,2129.321777 
	C2549.997314,2132.686523 2546.546143,2135.958740 2542.712891,2138.509033 
	C2524.952148,2150.325439 2499.889893,2149.288818 2487.890137,2123.167480 
	C2483.052734,2112.636719 2482.855225,2101.248291 2481.816650,2088.379883 
z"/>
<path fill="#F5F5F5" opacity="1.000000" stroke="none" 
	d="
M1814.452637,798.289185 
	C1862.006592,706.764282 1934.404053,644.810913 2027.208496,605.555054 
	C2033.230591,603.007751 2039.925659,600.988892 2046.382690,600.750061 
	C2060.464355,600.229126 2075.009766,611.788391 2079.370117,625.556213 
	C2083.814697,639.589478 2079.535645,653.819458 2066.922852,662.682861 
	C2059.916260,667.606750 2051.981445,671.421875 2044.067505,674.808350 
	C1987.480591,699.023071 1941.847534,736.803589 1905.659180,786.246216 
	C1871.115845,833.441406 1850.657349,886.207703 1843.218872,944.230286 
	C1839.805908,970.851807 1839.108276,997.300842 1843.124634,1023.891968 
	C1844.212646,1031.095581 1844.510498,1038.532593 1844.169556,1045.815674 
	C1843.291504,1064.569702 1830.803711,1077.815674 1813.368530,1079.237183 
	C1795.309814,1080.709473 1779.312256,1068.517456 1775.901978,1050.436523 
	C1774.668457,1043.896118 1773.665649,1037.280396 1773.090332,1030.652832 
	C1767.067993,961.275818 1773.982056,893.619568 1800.549072,828.682312 
	C1804.578003,818.834412 1809.307007,809.272949 1814.452637,798.289185 
z"/>
</svg>