<?xml version="1.0" encoding="UTF-8"?>
<!DOCTYPE svg PUBLIC "-//W3C//DTD SVG 1.1//EN" "http://www.w3.org/Graphics/SVG/1.1/DTD/svg11.dtd">
<svg xmlns="http://www.w3.org/2000/svg" version="1.1" width="685px" height="917px" style="shape-rendering:geometricPrecision; text-rendering:geometricPrecision; image-rendering:optimizeQuality; fill-rule:evenodd; clip-rule:evenodd" xmlns:xlink="http://www.w3.org/1999/xlink">
<g><path style="opacity:1" fill="#3f3f41" d="M 479.5,64.5 C 477.5,64.5 475.5,64.5 473.5,64.5C 333.078,68.3523 192.745,73.0189 52.5,78.5C 50.5,78.5 48.5,78.5 46.5,78.5C 38.1502,79.5055 29.8169,79.5055 21.5,78.5C 21.5,70.5 21.5,62.5 21.5,54.5C 182.481,47.473 343.481,40.8063 504.5,34.5C 504.5,44.1667 504.5,53.8333 504.5,63.5C 496.178,64.0548 487.844,64.3881 479.5,64.5 Z"/></g>
<g><path style="opacity:1" fill="#f2f2f2" d="M 473.5,64.5 C 473.609,71.1961 473.276,77.8627 472.5,84.5C 471.21,85.0577 470.377,86.0577 470,87.5C 462.738,121.979 454.905,156.312 446.5,190.5C 428.004,191.167 409.671,191.833 391.5,192.5C 391.5,208.833 391.5,225.167 391.5,241.5C 363.833,241.5 336.167,241.5 308.5,241.5C 308.5,257.833 308.5,274.167 308.5,290.5C 281.167,290.5 253.833,290.5 226.5,290.5C 226.5,306.833 226.5,323.167 226.5,339.5C 198.833,339.5 171.167,339.5 143.5,339.5C 143.5,355.833 143.5,372.167 143.5,388.5C 116.5,388.5 89.5,388.5 62.5,388.5C 62.5,392.167 62.5,395.833 62.5,399.5C 62.5,404.833 62.5,410.167 62.5,415.5C 62.6159,418.86 62.9492,422.193 63.5,425.5C 64.8333,425.5 66.1667,425.5 67.5,425.5C 67.8222,419.642 67.4889,413.975 66.5,408.5C 66.5,403.167 66.5,397.833 66.5,392.5C 87.1667,392.5 107.833,392.5 128.5,392.5C 134.509,392.666 140.509,392.499 146.5,392C 147,391.5 147.5,391 148,390.5C 148.381,374.83 148.214,359.163 147.5,343.5C 175.169,343.667 202.835,343.5 230.5,343C 231.491,326.911 231.825,310.744 231.5,294.5C 258.502,294.667 285.502,294.5 312.5,294C 313.167,278.333 313.833,262.667 314.5,247C 341.209,246.825 367.876,246.325 394.5,245.5C 395.192,244.975 395.692,244.308 396,243.5C 395.994,227.839 395.828,212.173 395.5,196.5C 412.5,196.5 429.5,196.5 446.5,196.5C 438.322,231.055 430.656,265.722 423.5,300.5C 418.453,300.337 413.453,300.671 408.5,301.5C 408.5,312.5 408.5,323.5 408.5,334.5C 402.132,334.17 395.798,334.504 389.5,335.5C 390.301,338.133 391.967,339.967 394.5,341C 390.301,342.241 385.967,343.241 381.5,344C 379.148,344.576 378.148,346.076 378.5,348.5C 378.598,350.937 379.598,352.937 381.5,354.5C 378.617,358.522 379.283,361.855 383.5,364.5C 384.318,367.107 384.818,369.774 385,372.5C 387.537,375.372 390.37,377.872 393.5,380C 397.17,380.279 400.837,380.112 404.5,379.5C 391.962,440.667 378.796,502 365,563.5C 363.376,571.623 358.543,576.623 350.5,578.5C 348.833,578.5 347.167,578.5 345.5,578.5C 335.768,573.796 326.435,568.296 317.5,562C 305.279,551.441 292.779,541.274 280,531.5C 277.719,532.776 275.719,534.443 274,536.5C 257.375,556.794 240.375,576.794 223,596.5C 205.979,581.978 188.813,567.645 171.5,553.5C 158.484,567.574 145.484,581.574 132.5,595.5C 118.624,598.052 104.957,601.386 91.5,605.5C 86.2599,603.143 80.9265,601.31 75.5,600C 80.0444,604.105 85.3777,606.272 91.5,606.5C 106.08,604.118 120.414,601.118 134.5,597.5C 147.173,585.494 159.506,573.161 171.5,560.5C 189.146,574.979 206.646,589.645 224,604.5C 243.049,582.956 261.882,561.289 280.5,539.5C 292.833,549.333 305.167,559.167 317.5,569C 324.238,573.368 331.238,577.201 338.5,580.5C 326.654,585.342 314.654,590.008 302.5,594.5C 301.391,594.443 300.391,594.11 299.5,593.5C 292.501,587.175 285.168,581.175 277.5,575.5C 266.696,587.118 256.363,599.118 246.5,611.5C 245.167,612.5 243.833,613.5 242.5,614.5C 229.75,618.306 217.084,622.306 204.5,626.5C 192.852,617.19 181.186,607.857 169.5,598.5C 166.906,599.592 164.739,601.259 163,603.5C 153.202,614.966 143.036,626.133 132.5,637C 118.035,641.784 103.368,645.95 88.5,649.5C 83.5963,647.364 78.5963,645.864 73.5,645C 77.7967,647.982 82.4633,650.149 87.5,651.5C 101.54,648.859 115.54,646.025 129.5,643C 131.5,642 133.5,641 135.5,640C 147.041,628.626 158.375,617.126 169.5,605.5C 179.172,613.178 188.506,621.178 197.5,629.5C 151.408,644.642 105.408,659.975 59.5,675.5C 57.2075,675.756 55.0408,675.423 53,674.5C 52.5,475.834 52.3333,277.167 52.5,78.5C 192.745,73.0189 333.078,68.3523 473.5,64.5 Z"/></g>
<g><path style="opacity:0.985" fill="#2b2b2b" d="M 473.5,64.5 C 475.5,64.5 477.5,64.5 479.5,64.5C 479.658,137.11 479.658,209.11 479.5,280.5C 479.5,286.833 479.5,293.167 479.5,299.5C 477.5,299.5 475.5,299.5 473.5,299.5C 473.832,264.996 473.498,230.663 472.5,196.5C 472.5,195.167 472.5,193.833 472.5,192.5C 473.359,156.738 473.359,120.738 472.5,84.5C 473.276,77.8627 473.609,71.1961 473.5,64.5 Z"/></g>
<g><path style="opacity:0.997" fill="#333333" d="M 46.5,78.5 C 48.5,78.5 50.5,78.5 52.5,78.5C 52.3333,277.167 52.5,475.834 53,674.5C 55.0408,675.423 57.2075,675.756 59.5,675.5C 171.303,682.359 283.303,688.526 395.5,694C 418.845,694.967 442.178,696.134 465.5,697.5C 467.56,697.428 469.56,697.095 471.5,696.5C 472.5,606.169 472.833,515.836 472.5,425.5C 451.167,425.5 429.833,425.5 408.5,425.5C 408.5,423.5 408.5,421.5 408.5,419.5C 411.462,413.803 413.962,407.803 416,401.5C 423.071,378.622 430.737,355.955 439,333.5C 454.996,322.529 470.83,312.196 486.5,302.5C 487.496,316.99 487.829,331.657 487.5,346.5C 486.542,352.744 486.209,359.077 486.5,365.5C 479.676,366.666 472.843,368 466,369.5C 464.743,369.85 464.409,370.517 465,371.5C 466.932,373.038 469.099,374.205 471.5,375C 467.54,377.228 463.373,379.062 459,380.5C 455.224,384.943 456.058,388.443 461.5,391C 458.493,395.833 459.827,398.999 465.5,400.5C 466.442,400.392 467.275,400.059 468,399.5C 467.888,401.178 467.388,402.845 466.5,404.5C 466.529,406.029 467.196,407.196 468.5,408C 471.2,408.253 473.867,408.253 476.5,408C 475.036,411.241 476.202,413.074 480,413.5C 482.489,412.394 484.989,411.394 487.5,410.5C 487.5,415.5 487.5,420.5 487.5,425.5C 485.167,425.5 482.833,425.5 480.5,425.5C 480.832,518.737 480.499,611.904 479.5,705C 334.886,697.766 190.219,690.266 45.5,682.5C 45.629,480.89 45.9623,279.557 46.5,78.5 Z"/></g>
<g><path style="opacity:0.998" fill="#683124" d="M 579.5,162.5 C 577.847,155.054 576.847,147.388 576.5,139.5C 577.154,135.161 576.154,131.327 573.5,128C 568.042,127.149 564.209,129.315 562,134.5C 564.201,141.81 561.701,146.81 554.5,149.5C 554.268,143.218 554.101,136.884 554,130.5C 553.194,127.554 551.861,124.888 550,122.5C 548.648,119.28 547.814,115.947 547.5,112.5C 547.5,110.167 547.5,107.833 547.5,105.5C 542.305,105.179 537.305,105.513 532.5,106.5C 521.994,106.391 512.494,109.391 504,115.5C 503.502,112.518 503.335,109.518 503.5,106.5C 503.631,94.5347 509.631,87.7014 521.5,86C 539.28,80.4773 556.614,81.4773 573.5,89C 580.22,94.1461 583.72,100.979 584,109.5C 585.369,127.416 583.869,145.083 579.5,162.5 Z"/></g>
<g><path style="opacity:0.997" fill="#dfdbdb" d="M 472.5,84.5 C 473.359,120.738 473.359,156.738 472.5,192.5C 445.5,192.5 418.5,192.5 391.5,192.5C 409.671,191.833 428.004,191.167 446.5,190.5C 454.905,156.312 462.738,121.979 470,87.5C 470.377,86.0577 471.21,85.0577 472.5,84.5 Z"/></g>
<g><path style="opacity:0.999" fill="#5ccbcb" d="M 334.5,108.5 C 324.667,122.828 315.334,137.495 306.5,152.5C 305.695,169.123 305.195,185.79 305,202.5C 304.196,203.804 303.029,204.471 301.5,204.5C 268.504,198.009 253.004,178.009 255,144.5C 263.272,112.931 283.772,98.4314 316.5,101C 323.174,102.179 329.174,104.679 334.5,108.5 Z"/></g>
<g><path style="opacity:0.756" fill="#a5674a" d="M 532.5,106.5 C 537.305,105.513 542.305,105.179 547.5,105.5C 547.5,107.833 547.5,110.167 547.5,112.5C 546.539,110.735 546.205,108.735 546.5,106.5C 541.833,106.5 537.167,106.5 532.5,106.5 Z"/></g>
<g><path style="opacity:1" fill="#fbb581" d="M 503.5,106.5 C 503.335,109.518 503.502,112.518 504,115.5C 512.494,109.391 521.994,106.391 532.5,106.5C 537.167,106.5 541.833,106.5 546.5,106.5C 546.205,108.735 546.539,110.735 547.5,112.5C 547.814,115.947 548.648,119.28 550,122.5C 551.861,124.888 553.194,127.554 554,130.5C 554.101,136.884 554.268,143.218 554.5,149.5C 561.701,146.81 564.201,141.81 562,134.5C 564.209,129.315 568.042,127.149 573.5,128C 576.154,131.327 577.154,135.161 576.5,139.5C 576.736,142.226 575.903,144.559 574,146.5C 571,148.833 568,151.167 565,153.5C 564,155.5 563,157.5 562,159.5C 562.11,166.954 560.444,173.954 557,180.5C 549.353,187.387 541.186,193.387 532.5,198.5C 527.871,199.481 523.204,199.648 518.5,199C 514.272,194.004 511.772,188.171 511,181.5C 508.333,176.833 505.667,172.167 503,167.5C 503.064,155.979 502.231,144.479 500.5,133C 501.48,124.014 502.48,115.18 503.5,106.5 Z"/></g>
<g><path style="opacity:0.995" fill="#f9cd87" d="M 334.5,108.5 C 347.686,115.155 355.853,125.821 359,140.5C 360.453,144.146 360.62,147.812 359.5,151.5C 341.88,152.486 324.214,152.82 306.5,152.5C 315.334,137.495 324.667,122.828 334.5,108.5 Z"/></g>
<g><path style="opacity:0.993" fill="#5ecbcc" d="M 190.5,113.5 C 195.167,113.5 199.833,113.5 204.5,113.5C 204.667,169.834 204.5,226.168 204,282.5C 203.5,283 203,283.5 202.5,284C 198.179,284.499 193.846,284.666 189.5,284.5C 189.171,227.429 189.504,170.429 190.5,113.5 Z"/></g>
<g><path style="opacity:0.993" fill="#f86564" d="M 159.5,284.5 C 158.496,283.317 157.662,281.984 157,280.5C 156.5,234.501 156.333,188.501 156.5,142.5C 157.15,142.196 157.817,141.863 158.5,141.5C 162.7,142.137 166.866,142.804 171,143.5C 171.667,189.167 171.667,234.833 171,280.5C 170.691,281.766 170.191,282.933 169.5,284C 166.183,284.498 162.85,284.665 159.5,284.5 Z"/></g>
<g><path style="opacity:0.992" fill="#e4a57c" d="M 576.5,139.5 C 576.847,147.388 577.847,155.054 579.5,162.5C 578.9,167.267 578.9,171.933 579.5,176.5C 567.648,185.517 555.648,194.35 543.5,203C 540.487,203.502 537.487,204.002 534.5,204.5C 534.975,201.918 534.308,199.918 532.5,198.5C 541.186,193.387 549.353,187.387 557,180.5C 560.444,173.954 562.11,166.954 562,159.5C 563,157.5 564,155.5 565,153.5C 568,151.167 571,148.833 574,146.5C 575.903,144.559 576.736,142.226 576.5,139.5 Z"/></g>
<g><path style="opacity:0.998" fill="#fa6362" d="M 315.5,161.5 C 333.833,161.5 352.167,161.5 370.5,161.5C 369.126,185.36 357.459,201.86 335.5,211C 328.988,213.043 322.322,213.876 315.5,213.5C 315.5,196.167 315.5,178.833 315.5,161.5 Z"/></g>
<g><path style="opacity:0.991" fill="#fbcc85" d="M 154.5,170.5 C 154.5,208.167 154.5,245.833 154.5,283.5C 152.585,283.216 150.919,283.549 149.5,284.5C 146.482,284.296 143.482,283.963 140.5,283.5C 140.825,255.093 140.491,226.759 139.5,198.5C 139.971,189.431 140.805,180.431 142,171.5C 146.066,170.536 150.233,170.203 154.5,170.5 Z"/></g>
<g><path style="opacity:0.961" fill="#f9dfd1" d="M 156.5,142.5 C 156.333,188.501 156.5,234.501 157,280.5C 157.662,281.984 158.496,283.317 159.5,284.5C 156.167,284.5 152.833,284.5 149.5,284.5C 150.919,283.549 152.585,283.216 154.5,283.5C 154.5,245.833 154.5,208.167 154.5,170.5C 155.167,161.167 155.833,151.833 156.5,142.5 Z"/></g>
<g><path style="opacity:1" fill="#fc7e7f" d="M 579.5,176.5 C 582.797,179.296 585.964,182.296 589,185.5C 589.692,186.437 589.525,187.103 588.5,187.5C 583.36,187.584 583.36,188.25 588.5,189.5C 588.5,189.833 588.5,190.167 588.5,190.5C 585.692,191.103 583.026,192.103 580.5,193.5C 568.405,205.591 556.738,217.924 545.5,230.5C 544.893,230.376 544.56,230.043 544.5,229.5C 545.66,227.797 544.993,227.131 542.5,227.5C 538.401,223.504 534.401,219.337 530.5,215C 529.207,214.51 527.873,214.343 526.5,214.5C 529.516,211.48 532.183,208.146 534.5,204.5C 537.487,204.002 540.487,203.502 543.5,203C 555.648,194.35 567.648,185.517 579.5,176.5 Z"/></g>
<g><path style="opacity:0.992" fill="#dddbdd" d="M 588.5,187.5 C 588.5,188.167 588.5,188.833 588.5,189.5C 583.36,188.25 583.36,187.584 588.5,187.5 Z"/></g>
<g><path style="opacity:0.999" fill="#fc6261" d="M 588.5,190.5 C 599.619,196.564 610.286,203.397 620.5,211C 623.212,214.102 626.379,216.602 630,218.5C 630.49,219.793 630.657,221.127 630.5,222.5C 629.726,223.147 628.726,223.48 627.5,223.5C 606.3,215.052 591.8,221.386 584,242.5C 583.434,251.847 583.601,261.18 584.5,270.5C 577.548,279.741 572.715,290.075 570,301.5C 571.404,319.813 572.904,338.146 574.5,356.5C 554.289,360.627 533.956,364.293 513.5,367.5C 506.124,367.726 498.791,367.392 491.5,366.5C 487.568,360.532 487.902,354.698 492.5,349C 496.222,348.762 499.889,348.262 503.5,347.5C 504.606,344.934 504.273,342.6 502.5,340.5C 502.5,339.167 502.5,337.833 502.5,336.5C 501.89,330.938 500.39,325.605 498,320.5C 497.422,310.144 497.755,299.81 499,289.5C 502.324,274.03 506.158,258.696 510.5,243.5C 513.593,232.513 518.926,222.847 526.5,214.5C 527.873,214.343 529.207,214.51 530.5,215C 534.401,219.337 538.401,223.504 542.5,227.5C 542.833,228.5 543.5,229.167 544.5,229.5C 544.56,230.043 544.893,230.376 545.5,230.5C 556.738,217.924 568.405,205.591 580.5,193.5C 583.026,192.103 585.692,191.103 588.5,190.5 Z"/></g>
<g><path style="opacity:0.997" fill="#eb7575" d="M 391.5,192.5 C 418.5,192.5 445.5,192.5 472.5,192.5C 472.5,193.833 472.5,195.167 472.5,196.5C 463.833,196.5 455.167,196.5 446.5,196.5C 429.5,196.5 412.5,196.5 395.5,196.5C 395.828,212.173 395.994,227.839 396,243.5C 395.692,244.308 395.192,244.975 394.5,245.5C 367.876,246.325 341.209,246.825 314.5,247C 313.833,262.667 313.167,278.333 312.5,294C 285.502,294.5 258.502,294.667 231.5,294.5C 231.825,310.744 231.491,326.911 230.5,343C 202.835,343.5 175.169,343.667 147.5,343.5C 148.214,359.163 148.381,374.83 148,390.5C 147.5,391 147,391.5 146.5,392C 140.509,392.499 134.509,392.666 128.5,392.5C 134.014,391.833 139.681,391.167 145.5,390.5C 146.639,381.548 146.805,372.548 146,363.5C 145.667,371.5 145.333,379.5 145,387.5C 144.617,388.056 144.117,388.389 143.5,388.5C 143.5,372.167 143.5,355.833 143.5,339.5C 171.167,339.5 198.833,339.5 226.5,339.5C 226.5,323.167 226.5,306.833 226.5,290.5C 253.833,290.5 281.167,290.5 308.5,290.5C 308.5,274.167 308.5,257.833 308.5,241.5C 336.167,241.5 363.833,241.5 391.5,241.5C 391.5,225.167 391.5,208.833 391.5,192.5 Z"/></g>
<g><path style="opacity:0.999" fill="#dfdfdf" d="M 446.5,196.5 C 455.167,196.5 463.833,196.5 472.5,196.5C 473.498,230.663 473.832,264.996 473.5,299.5C 456.911,300.485 440.244,300.818 423.5,300.5C 430.656,265.722 438.322,231.055 446.5,196.5 Z"/></g>
<g><path style="opacity:0.994" fill="#b7b7b6" d="M 138.5,198.5 C 138.5,226.833 138.5,255.167 138.5,283.5C 133.5,283.5 128.5,283.5 123.5,283.5C 123.5,255.167 123.5,226.833 123.5,198.5C 128.5,198.5 133.5,198.5 138.5,198.5 Z"/></g>
<g><path style="opacity:0.944" fill="#fae0d1" d="M 138.5,198.5 C 138.833,198.5 139.167,198.5 139.5,198.5C 140.491,226.759 140.825,255.093 140.5,283.5C 139.833,283.5 139.167,283.5 138.5,283.5C 138.5,255.167 138.5,226.833 138.5,198.5 Z"/></g>
<g><path style="opacity:0.999" fill="#fe7b7c" d="M 630.5,222.5 C 632.417,223.116 633.584,224.45 634,226.5C 641.636,270.254 646.969,314.254 650,358.5C 648.693,366.422 646.193,373.922 642.5,381C 630.739,384.586 618.739,387.086 606.5,388.5C 598.123,389.576 589.789,390.909 581.5,392.5C 558.921,395.719 536.255,397.886 513.5,399C 512.944,398.617 512.611,398.117 512.5,397.5C 513.424,387.539 513.758,377.539 513.5,367.5C 533.956,364.293 554.289,360.627 574.5,356.5C 582.858,354.494 591.191,352.327 599.5,350C 600.516,349.481 601.182,348.647 601.5,347.5C 594.938,322.023 589.271,296.356 584.5,270.5C 583.601,261.18 583.434,251.847 584,242.5C 591.8,221.386 606.3,215.052 627.5,223.5C 628.726,223.48 629.726,223.147 630.5,222.5 Z"/></g>
<g><path style="opacity:0.996" fill="#3f3e40" d="M 174.5,227.5 C 178.833,227.5 183.167,227.5 187.5,227.5C 187.5,246.167 187.5,264.833 187.5,283.5C 182.5,283.5 177.5,283.5 172.5,283.5C 172.333,265.497 172.5,247.497 173,229.5C 173.717,228.956 174.217,228.289 174.5,227.5 Z"/></g>
<g><path style="opacity:0.941" fill="#e4ced0" d="M 542.5,227.5 C 544.993,227.131 545.66,227.797 544.5,229.5C 543.5,229.167 542.833,228.5 542.5,227.5 Z"/></g>
<g><path style="opacity:0.994" fill="#e15554" d="M 584.5,270.5 C 589.271,296.356 594.938,322.023 601.5,347.5C 601.182,348.647 600.516,349.481 599.5,350C 591.191,352.327 582.858,354.494 574.5,356.5C 572.904,338.146 571.404,319.813 570,301.5C 572.715,290.075 577.548,279.741 584.5,270.5 Z"/></g>
<g><path style="opacity:0.973" fill="#ec8383" d="M 510.5,243.5 C 506.158,258.696 502.324,274.03 499,289.5C 497.755,299.81 497.422,310.144 498,320.5C 500.39,325.605 501.89,330.938 502.5,336.5C 497.315,326.944 494.649,316.611 494.5,305.5C 496.801,283.951 502.134,263.285 510.5,243.5 Z"/></g>
<g><path style="opacity:0.997" fill="#515151" d="M 479.5,280.5 C 480.49,286.645 480.823,292.978 480.5,299.5C 483.216,299.386 485.216,300.386 486.5,302.5C 470.83,312.196 454.996,322.529 439,333.5C 430.737,355.955 423.071,378.622 416,401.5C 413.962,407.803 411.462,413.803 408.5,419.5C 408.5,405.833 408.5,392.167 408.5,378.5C 408.5,363.833 408.5,349.167 408.5,334.5C 408.5,323.5 408.5,312.5 408.5,301.5C 413.453,300.671 418.453,300.337 423.5,300.5C 440.244,300.818 456.911,300.485 473.5,299.5C 475.5,299.5 477.5,299.5 479.5,299.5C 479.5,293.167 479.5,286.833 479.5,280.5 Z"/></g>
<g><path style="opacity:0.999" fill="#eeb185" d="M 408.5,334.5 C 408.5,349.167 408.5,363.833 408.5,378.5C 406.901,378.232 405.568,378.566 404.5,379.5C 400.837,380.112 397.17,380.279 393.5,380C 390.37,377.872 387.537,375.372 385,372.5C 384.818,369.774 384.318,367.107 383.5,364.5C 379.283,361.855 378.617,358.522 381.5,354.5C 379.598,352.937 378.598,350.937 378.5,348.5C 378.148,346.076 379.148,344.576 381.5,344C 385.967,343.241 390.301,342.241 394.5,341C 391.967,339.967 390.301,338.133 389.5,335.5C 395.798,334.504 402.132,334.17 408.5,334.5 Z"/></g>
<g><path style="opacity:1" fill="#73c9ca" d="M 264.5,339.5 C 290.169,339.333 315.835,339.5 341.5,340C 342.833,341 342.833,342 341.5,343C 317.169,343.5 292.836,343.667 268.5,343.5C 268.667,359.503 268.5,375.503 268,391.5C 267.5,392 267,392.5 266.5,393C 239.502,393.5 212.502,393.667 185.5,393.5C 185.997,409.213 185.997,424.88 185.5,440.5C 184.975,441.192 184.308,441.692 183.5,442C 157.5,442.333 131.5,442.667 105.5,443C 105,443.5 104.5,444 104,444.5C 103.833,447.667 103.667,450.833 103.5,454C 104.379,464.493 104.545,474.993 104,485.5C 102.667,489.5 101.333,489.5 100,485.5C 99.3109,470.163 98.9775,454.83 99,439.5C 99.5,439 100,438.5 100.5,438C 127.498,437.5 154.498,437.333 181.5,437.5C 181.252,421.825 181.086,406.159 181,390.5C 181.5,390 182,389.5 182.5,389C 209.839,388.833 237.173,388.333 264.5,387.5C 263.168,371.47 263.168,355.47 264.5,339.5 Z"/></g>
<g><path style="opacity:0.954" fill="#dd7b7a" d="M 502.5,340.5 C 504.273,342.6 504.606,344.934 503.5,347.5C 499.889,348.262 496.222,348.762 492.5,349C 487.902,354.698 487.568,360.532 491.5,366.5C 489.883,365.962 488.216,365.629 486.5,365.5C 486.209,359.077 486.542,352.744 487.5,346.5C 492.5,346.5 497.5,346.5 502.5,346.5C 502.5,344.5 502.5,342.5 502.5,340.5 Z"/></g>
<g><path style="opacity:0.999" fill="#f8b583" d="M 486.5,365.5 C 488.216,365.629 489.883,365.962 491.5,366.5C 498.791,367.392 506.124,367.726 513.5,367.5C 513.758,377.539 513.424,387.539 512.5,397.5C 508.577,398.795 504.91,400.628 501.5,403C 500.915,404.302 500.249,405.469 499.5,406.5C 499.631,405.761 499.464,405.094 499,404.5C 495.219,406.64 491.385,408.64 487.5,410.5C 484.989,411.394 482.489,412.394 480,413.5C 476.202,413.074 475.036,411.241 476.5,408C 473.867,408.253 471.2,408.253 468.5,408C 467.196,407.196 466.529,406.029 466.5,404.5C 467.388,402.845 467.888,401.178 468,399.5C 467.275,400.059 466.442,400.392 465.5,400.5C 459.827,398.999 458.493,395.833 461.5,391C 456.058,388.443 455.224,384.943 459,380.5C 463.373,379.062 467.54,377.228 471.5,375C 469.099,374.205 466.932,373.038 465,371.5C 464.409,370.517 464.743,369.85 466,369.5C 472.843,368 479.676,366.666 486.5,365.5 Z"/></g>
<g><path style="opacity:0.999" fill="#dfdfdf" d="M 404.5,379.5 C 405.568,378.566 406.901,378.232 408.5,378.5C 408.5,392.167 408.5,405.833 408.5,419.5C 408.5,421.5 408.5,423.5 408.5,425.5C 429.833,425.5 451.167,425.5 472.5,425.5C 472.833,515.836 472.5,606.169 471.5,696.5C 469.56,697.095 467.56,697.428 465.5,697.5C 442.178,696.134 418.845,694.967 395.5,694C 283.303,688.526 171.303,682.359 59.5,675.5C 105.408,659.975 151.408,644.642 197.5,629.5C 198.167,629.5 198.833,629.5 199.5,629.5C 206.762,635.816 214.095,642.149 221.5,648.5C 232.624,637.382 242.624,625.382 251.5,612.5C 253.772,611.559 255.772,610.226 257.5,608.5C 270.157,604.84 282.824,601.174 295.5,597.5C 314.885,615.035 337.218,627.702 362.5,635.5C 378.197,623.964 393.197,611.464 407.5,598C 409.067,596.924 410.734,596.091 412.5,595.5C 421.838,601.326 430.171,608.493 437.5,617C 442.269,618.685 444.769,617.185 445,612.5C 443.333,613.5 441.667,614.5 440,615.5C 430.953,606.783 421.619,598.449 412,590.5C 398.22,601.276 384.72,612.442 371.5,624C 368.681,626.491 365.514,628.324 362,629.5C 342.623,622.731 324.79,613.231 308.5,601C 306.294,598.963 304.294,596.797 302.5,594.5C 314.654,590.008 326.654,585.342 338.5,580.5C 339.5,580.5 340.5,580.5 341.5,580.5C 348.621,584.225 355.954,587.725 363.5,591C 364.5,591.667 365.5,591.667 366.5,591C 381.334,578.33 396.001,565.497 410.5,552.5C 412.305,551.091 414.305,550.591 416.5,551C 425.012,558.846 433.512,566.679 442,574.5C 446.588,571.75 450.755,568.417 454.5,564.5C 453.998,563.479 453.332,563.312 452.5,564C 448.4,566.467 444.566,569.301 441,572.5C 432.833,563.667 424.667,554.833 416.5,546C 413.332,545.968 410.999,547.468 409.5,550.5C 395.375,561.453 381.375,572.62 367.5,584C 360.868,585.011 355.202,583.178 350.5,578.5C 358.543,576.623 363.376,571.623 365,563.5C 378.796,502 391.962,440.667 404.5,379.5 Z"/></g>
<g><path style="opacity:1" fill="#eb7070" d="M 143.5,388.5 C 117.67,389.332 91.6699,389.832 65.5,390C 63.981,393.051 62.981,396.218 62.5,399.5C 62.5,395.833 62.5,392.167 62.5,388.5C 89.5,388.5 116.5,388.5 143.5,388.5 Z"/></g>
<g><path style="opacity:0.986" fill="#f86363" d="M 128.5,392.5 C 107.833,392.5 87.1667,392.5 66.5,392.5C 66.5,397.833 66.5,403.167 66.5,408.5C 66.6658,413.179 66.4992,417.845 66,422.5C 64.1689,420.418 63.0022,418.085 62.5,415.5C 62.5,410.167 62.5,404.833 62.5,399.5C 62.981,396.218 63.981,393.051 65.5,390C 91.6699,389.832 117.67,389.332 143.5,388.5C 144.117,388.389 144.617,388.056 145,387.5C 145.333,379.5 145.667,371.5 146,363.5C 146.805,372.548 146.639,381.548 145.5,390.5C 139.681,391.167 134.014,391.833 128.5,392.5 Z"/></g>
<g><path style="opacity:0.989" fill="#dc5757" d="M 606.5,388.5 C 606.5,394.5 606.5,400.5 606.5,406.5C 603.5,406.5 600.5,406.5 597.5,406.5C 592.167,406.5 586.833,406.5 581.5,406.5C 582.568,405.566 583.901,405.232 585.5,405.5C 584.454,401.076 583.121,396.743 581.5,392.5C 589.789,390.909 598.123,389.576 606.5,388.5 Z"/></g>
<g><path style="opacity:0.995" fill="#f86261" d="M 581.5,392.5 C 583.121,396.743 584.454,401.076 585.5,405.5C 583.901,405.232 582.568,405.566 581.5,406.5C 564.18,407.164 547.513,410.497 531.5,416.5C 520.155,417.38 508.822,418.38 497.5,419.5C 498.167,415.167 498.833,410.833 499.5,406.5C 500.249,405.469 500.915,404.302 501.5,403C 504.91,400.628 508.577,398.795 512.5,397.5C 512.611,398.117 512.944,398.617 513.5,399C 536.255,397.886 558.921,395.719 581.5,392.5 Z"/></g>
<g><path style="opacity:0.998" fill="#3c3c3c" d="M 581.5,406.5 C 586.833,406.5 592.167,406.5 597.5,406.5C 596.577,408.767 595.744,411.1 595,413.5C 594.669,442.87 595.669,472.203 598,501.5C 601.997,540.468 605.663,579.468 609,618.5C 615.237,622.808 622.071,625.975 629.5,628C 632.754,630.342 634.588,633.509 635,637.5C 647.175,700.599 652.342,764.266 650.5,828.5C 641.086,828.079 631.753,827.079 622.5,825.5C 621.817,825.863 621.15,826.196 620.5,826.5C 615.073,774.797 603.073,724.797 584.5,676.5C 582.353,670.865 580.187,665.198 578,659.5C 577.74,653.449 577.073,647.449 576,641.5C 566.199,611.295 556.866,580.961 548,550.5C 543.079,529.068 537.745,507.735 532,486.5C 529.985,465.654 530.152,444.821 532.5,424C 532.445,421.413 532.111,418.913 531.5,416.5C 547.513,410.497 564.18,407.164 581.5,406.5 Z"/></g>
<g><path style="opacity:0.997" fill="#5e5e5e" d="M 597.5,406.5 C 600.5,406.5 603.5,406.5 606.5,406.5C 610.195,408.869 612.695,412.203 614,416.5C 617.025,426.292 619.025,436.292 620,446.5C 621.236,497.822 622.236,549.155 623,600.5C 626.605,607.1 630.605,613.434 635,619.5C 642.323,635.788 647.323,652.788 650,670.5C 660.766,723.094 663.6,776.094 658.5,829.5C 655.946,828.612 653.279,828.279 650.5,828.5C 652.342,764.266 647.175,700.599 635,637.5C 634.588,633.509 632.754,630.342 629.5,628C 622.071,625.975 615.237,622.808 609,618.5C 605.663,579.468 601.997,540.468 598,501.5C 595.669,472.203 594.669,442.87 595,413.5C 595.744,411.1 596.577,408.767 597.5,406.5 Z"/></g>
<g><path style="opacity:1" fill="#2d2d2d" d="M 531.5,416.5 C 532.111,418.913 532.445,421.413 532.5,424C 530.152,444.821 529.985,465.654 532,486.5C 537.745,507.735 543.079,529.068 548,550.5C 556.866,580.961 566.199,611.295 576,641.5C 577.073,647.449 577.74,653.449 578,659.5C 580.187,665.198 582.353,670.865 584.5,676.5C 583.748,723.849 582.914,771.183 582,818.5C 584.511,828.211 587.178,837.877 590,847.5C 590.388,848.428 591.055,849.095 592,849.5C 603.919,844.796 613.419,837.129 620.5,826.5C 621.15,826.196 621.817,825.863 622.5,825.5C 631.753,827.079 641.086,828.079 650.5,828.5C 653.279,828.279 655.946,828.612 658.5,829.5C 662.043,840.215 664.043,851.215 664.5,862.5C 664.721,865.279 664.388,867.946 663.5,870.5C 658.166,871.336 652.833,871.836 647.5,872C 646.853,870.391 646.02,868.891 645,867.5C 640.585,872.289 635.085,874.789 628.5,875C 611.755,876.045 595.088,875.379 578.5,873C 573.603,871.593 569.103,869.427 565,866.5C 563.991,864.975 563.491,863.308 563.5,861.5C 543.279,865.012 522.945,865.845 502.5,864C 498.271,862.885 494.271,861.219 490.5,859C 488.045,856.336 487.878,853.502 490,850.5C 491.5,848.333 493.333,846.5 495.5,845C 502.009,842.875 508.676,841.209 515.5,840C 524.769,835.74 532.602,829.573 539,821.5C 539.958,819.801 540.458,817.967 540.5,816C 536.498,777.481 532.331,738.981 528,700.5C 524.279,680.281 519.612,660.281 514,640.5C 512.421,631.538 511.088,622.538 510,613.5C 497.917,581.834 489.917,549.168 486,515.5C 483.111,489.924 484.445,464.591 490,439.5C 492.014,432.622 494.514,425.955 497.5,419.5C 508.822,418.38 520.155,417.38 531.5,416.5 Z"/></g>
<g><path style="opacity:0.982" fill="#ef8a88" d="M 66.5,408.5 C 67.4889,413.975 67.8222,419.642 67.5,425.5C 66.1667,425.5 64.8333,425.5 63.5,425.5C 62.9492,422.193 62.6159,418.86 62.5,415.5C 63.0022,418.085 64.1689,420.418 66,422.5C 66.4992,417.845 66.6658,413.179 66.5,408.5 Z"/></g>
<g><path style="opacity:0.988" fill="#ef6e6e" d="M 345.5,578.5 C 344.329,579.345 342.995,580.011 341.5,580.5C 340.5,580.5 339.5,580.5 338.5,580.5C 331.238,577.201 324.238,573.368 317.5,569C 305.167,559.167 292.833,549.333 280.5,539.5C 261.882,561.289 243.049,582.956 224,604.5C 206.646,589.645 189.146,574.979 171.5,560.5C 159.506,573.161 147.173,585.494 134.5,597.5C 133.167,597.5 132.5,596.833 132.5,595.5C 145.484,581.574 158.484,567.574 171.5,553.5C 188.813,567.645 205.979,581.978 223,596.5C 240.375,576.794 257.375,556.794 274,536.5C 275.719,534.443 277.719,532.776 280,531.5C 292.779,541.274 305.279,551.441 317.5,562C 326.435,568.296 335.768,573.796 345.5,578.5 Z"/></g>
<g><path style="opacity:0.98" fill="#d07b7a" d="M 410.5,552.5 C 410.672,551.508 410.338,550.842 409.5,550.5C 410.999,547.468 413.332,545.968 416.5,546C 424.667,554.833 432.833,563.667 441,572.5C 444.566,569.301 448.4,566.467 452.5,564C 453.332,563.312 453.998,563.479 454.5,564.5C 450.755,568.417 446.588,571.75 442,574.5C 433.512,566.679 425.012,558.846 416.5,551C 414.305,550.591 412.305,551.091 410.5,552.5 Z"/></g>
<g><path style="opacity:0.986" fill="#db6b6a" d="M 409.5,550.5 C 410.338,550.842 410.672,551.508 410.5,552.5C 396.001,565.497 381.334,578.33 366.5,591C 365.5,591.667 364.5,591.667 363.5,591C 355.954,587.725 348.621,584.225 341.5,580.5C 342.995,580.011 344.329,579.345 345.5,578.5C 347.167,578.5 348.833,578.5 350.5,578.5C 355.202,583.178 360.868,585.011 367.5,584C 381.375,572.62 395.375,561.453 409.5,550.5 Z"/></g>
<g><path style="opacity:0.996" fill="#6ac9c8" d="M 299.5,593.5 C 297.95,594.441 296.284,595.107 294.5,595.5C 288.902,591.909 283.569,587.909 278.5,583.5C 270.789,591.269 263.789,599.602 257.5,608.5C 255.772,610.226 253.772,611.559 251.5,612.5C 249.958,611.699 248.292,611.366 246.5,611.5C 256.363,599.118 266.696,587.118 277.5,575.5C 285.168,581.175 292.501,587.175 299.5,593.5 Z"/></g>
<g><path style="opacity:0.984" fill="#ebf2f2" d="M 294.5,595.5 C 294.833,596.167 295.167,596.833 295.5,597.5C 282.824,601.174 270.157,604.84 257.5,608.5C 263.789,599.602 270.789,591.269 278.5,583.5C 283.569,587.909 288.902,591.909 294.5,595.5 Z"/></g>
<g><path style="opacity:0.994" fill="#68b9b8" d="M 295.5,597.5 C 295.167,596.833 294.833,596.167 294.5,595.5C 296.284,595.107 297.95,594.441 299.5,593.5C 300.391,594.11 301.391,594.443 302.5,594.5C 304.294,596.797 306.294,598.963 308.5,601C 324.79,613.231 342.623,622.731 362,629.5C 365.514,628.324 368.681,626.491 371.5,624C 384.72,612.442 398.22,601.276 412,590.5C 421.619,598.449 430.953,606.783 440,615.5C 441.667,614.5 443.333,613.5 445,612.5C 444.769,617.185 442.269,618.685 437.5,617C 430.171,608.493 421.838,601.326 412.5,595.5C 410.734,596.091 409.067,596.924 407.5,598C 393.197,611.464 378.197,623.964 362.5,635.5C 337.218,627.702 314.885,615.035 295.5,597.5 Z"/></g>
<g><path style="opacity:0.975" fill="#e97b79" d="M 132.5,595.5 C 132.5,596.833 133.167,597.5 134.5,597.5C 120.414,601.118 106.08,604.118 91.5,606.5C 91.5,606.167 91.5,605.833 91.5,605.5C 104.957,601.386 118.624,598.052 132.5,595.5 Z"/></g>
<g><path style="opacity:0.994" fill="#73c9c8" d="M 204.5,626.5 C 204.5,626.833 204.5,627.167 204.5,627.5C 202.833,628.167 201.167,628.833 199.5,629.5C 198.833,629.5 198.167,629.5 197.5,629.5C 188.506,621.178 179.172,613.178 169.5,605.5C 158.375,617.126 147.041,628.626 135.5,640C 133.5,641 131.5,642 129.5,643C 115.54,646.025 101.54,648.859 87.5,651.5C 82.4633,650.149 77.7967,647.982 73.5,645C 78.5963,645.864 83.5963,647.364 88.5,649.5C 103.368,645.95 118.035,641.784 132.5,637C 143.036,626.133 153.202,614.966 163,603.5C 164.739,601.259 166.906,599.592 169.5,598.5C 181.186,607.857 192.852,617.19 204.5,626.5 Z"/></g>
<g><path style="opacity:0.988" fill="#d19494" d="M 91.5,605.5 C 91.5,605.833 91.5,606.167 91.5,606.5C 85.3777,606.272 80.0444,604.105 75.5,600C 80.9265,601.31 86.2599,603.143 91.5,605.5 Z"/></g>
<g><path style="opacity:0.992" fill="#63baba" d="M 246.5,611.5 C 248.292,611.366 249.958,611.699 251.5,612.5C 242.624,625.382 232.624,637.382 221.5,648.5C 214.095,642.149 206.762,635.816 199.5,629.5C 201.167,628.833 202.833,628.167 204.5,627.5C 209.863,632.193 215.53,636.526 221.5,640.5C 228.988,632.169 235.988,623.502 242.5,614.5C 243.833,613.5 245.167,612.5 246.5,611.5 Z"/></g>
<g><path style="opacity:0.994" fill="#d9e0e0" d="M 242.5,614.5 C 235.988,623.502 228.988,632.169 221.5,640.5C 215.53,636.526 209.863,632.193 204.5,627.5C 204.5,627.167 204.5,626.833 204.5,626.5C 217.084,622.306 229.75,618.306 242.5,614.5 Z"/></g>
<g><path style="opacity:0.788" fill="#b5b5b5" d="M 664.5,862.5 C 665.156,863.622 665.489,864.955 665.5,866.5C 665.415,868.333 664.748,869.666 663.5,870.5C 664.388,867.946 664.721,865.279 664.5,862.5 Z"/></g>
</svg>
